<svg xmlns="http://www.w3.org/2000/svg" version="1.1" xmlns:xlink="http://www.w3.org/1999/xlink" xmlns:svgjs="http://svgjs.dev/svgjs" width="2000" height="1500" viewBox="0 0 2000 1500"><rect width="2000" height="1500" fill="#0a1627"></rect><g transform="matrix(0.4444444444444444,0,0,0.4444444444444444,555.5555555555558,250)"><svg viewBox="0 0 320 360" data-background-color="#0a1627" preserveAspectRatio="xMidYMid meet" height="2250" width="2000" xmlns="http://www.w3.org/2000/svg" xmlns:xlink="http://www.w3.org/1999/xlink"><g id="tight-bounds" transform="matrix(1,0,0,1,-5.684341886080802e-14,0)"><svg viewBox="0 0 320 360" height="360" width="320"><g><svg></svg></g><g><svg viewBox="0 0 320 360" height="360" width="320"><g><path xmlns="http://www.w3.org/2000/svg" d="M85.508 32.884c0-1.117 0.558-2.233 1.675-2.233 1.117 0 2.233 0.558 2.234 2.233 0.558 0 1.675 0 2.233-0.558 2.233 0 4.467-0.558 6.141 0 1.675 0.558 2.792 0.558 4.467 1.117 1.675 0.558 2.792 0 3.908-0.559 2.233-0.558 3.908-1.675 6.141-2.233 1.117-0.558 1.675-0.558 2.792-0.558 1.117-0.558 2.233-0.558 3.908-1.117 2.792-0.558 5.583-1.117 7.817-2.233 2.233-1.117 4.467-1.117 6.699-1.675 1.117 0 1.675-0.558 2.792-1.117 0.558 0 0.558-0.558 1.116-1.116 1.117-0.558 1.675-1.117 2.792-0.559 0.558 0.558 1.675 0.558 2.233 0h0.559c3.35 0 6.7-0.558 10.608 0 0.558 0 1.117 0 1.116 0 1.675-1.117 3.908-1.117 6.142-1.116 0.558 0 1.675 0 2.233 0h0.558c2.233 0 4.467 0 6.142 0.558 1.675 0 2.792 0.558 4.466 1.117 1.675 0 2.792 0 4.467 0.558 1.117 0 2.233 0 3.35 0 0.558 0 1.117 0 1.116 0 2.233 0.558 4.467 0.558 6.7 0.558 1.675 0.558 3.35 1.117 5.583 1.117 0.558 0 1.117 0 1.675 0 0.558 0 1.117 0.558 1.675 0.558l0.558 0.559c2.233 0 3.908 1.117 6.142 1.116 0.558 0 1.675 0 2.233 0.559 1.675 1.117 3.908 1.675 6.141 1.675 1.117 0 1.675 0.558 2.234 1.116 1.675 0.558 2.792 1.117 4.466 1.675 1.117 0.558 2.233 0 3.35 0.558 1.675 0.558 3.908 1.117 5.583 2.792 1.117 1.117 2.233 1.117 3.908 2.233 0.558 0 1.117 0.558 1.675 1.117 1.675 1.117 3.35 2.233 5.025 2.791 0.558 0 1.117 0.558 1.675 0.559 1.675 1.117 3.35 2.792 5.583 3.908 1.117 0.558 1.675 1.117 2.792 1.675h0.558c1.675 1.675 3.908 2.792 5.583 4.466 1.675 1.675 2.792 2.792 5.025 3.909 0 0 0 0 0 0.558 0.558 1.117 1.117 1.675 2.233 2.233 1.117 0.558 1.675 1.117 2.234 1.675 1.675 1.117 3.35 2.233 4.466 3.35 0.558 0.558 1.117 1.117 2.233 2.233 0.558 0.558 1.117 1.117 1.675 1.117 2.233 0.558 3.35 2.233 5.025 3.908 1.117 1.117 2.792 2.792 3.908 3.908 0.558 0.558 1.117 1.675 1.675 2.792 1.117 3.35 2.792 6.7 4.467 9.491 0 0 0 0.558 0.558 1.117v0.558c1.117 1.117 1.675 2.792 2.792 3.908 0.558 0.558 0.558 1.117 1.116 1.675 1.117 1.675 1.675 3.908 2.792 5.583 1.675 2.792 2.792 5.583 3.908 8.375v0.558c0.558 1.117 1.117 2.233 1.675 3.908 0 1.117 1.117 2.233 1.675 3.909 0.558 2.792 2.233 5.583 2.791 8.933 0 0.558 0.558 1.117 0.559 2.233 0.558 1.675 1.117 3.35 1.675 5.025 0 0.558 0.558 1.117 1.116 1.675 1.117 1.117 1.117 2.233 1.117 3.35-0.558 2.233 0 4.467 0.558 6.699 0 0.558 0 1.117 0 2.234 0.558 2.233 1.117 5.025 1.117 7.258 0 0.558 0 1.675 0 2.233 0 1.675 0.558 3.35 1.675 5.025 0 0.558 0.558 0.558 0.558 0.558 0.558 0.558 1.117 1.675 1.675 2.233 0.558 0.558 0.558 0.558 1.117 1.117 1.117 1.117 1.675 2.233 1.675 3.908 0 0.558-0.558 1.675-0.559 2.233 0 0.558 0 1.675 0.559 2.234 0.558 0.558 0.558 1.117 0.558 1.675 0 0.558-0.558 1.117-1.117 1.116v0c-0.558 1.675-2.792 2.233-3.35 3.908-0.558 2.233-1.117 4.467-1.674 6.7-0.558 1.675-0.558 2.792-0.559 4.467 0 1.675-0.558 2.792-0.558 4.466-0.558 2.233-1.117 4.467-1.675 6.7 0 1.117-0.558 2.233-0.558 3.35 0.558 0.558 1.117 1.117 1.675 1.116 1.117 1.117 2.233 2.233 3.349 3.35 0.558 0.558 0.558 1.117 0 1.117-0.558 0.558-1.117 0.558-1.674 0.558-0.558-0.558-1.675-1.117-2.234-1.116-0.558-0.558-1.675-1.117-2.791-0.559 0 1.117-0.558 2.233-0.559 2.792-0.558 1.117-1.117 2.792-1.116 3.908-0.558 2.233-1.675 3.908-2.233 6.142-1.117 2.792-2.233 5.025-3.35 7.258-0.558 1.117-1.117 2.233-1.675 3.35v0c0 1.675-1.675 3.35-2.234 5.024-1.117 2.233-2.233 4.467-3.349 7.258-0.558 1.117-1.117 2.233-1.675 2.792-1.117 2.792-2.233 5.025-3.909 7.258-1.117 1.675-2.233 2.792-3.349 3.35-1.117 1.117-2.233 2.233-3.35 3.35-0.558 0.558-1.117 1.117-1.675 1.675-0.558 0.558-0.558 0.558-1.117 1.116-1.117 1.675-2.792 2.792-3.908 4.467-1.117 1.117-1.675 2.233-3.35 3.35-1.117 1.117-2.233 2.792-3.908 3.35-0.558 0.558-1.117 1.675-1.675 2.233-0.558 0.558-1.117 1.675-1.675 2.233 0 1.117 0.558 2.233 0.558 2.792 0 1.675-1.675 2.233-2.791 1.116-1.675-1.117-1.675-1.117-3.35 0-1.675 1.117-3.35 2.792-5.583 3.35-0.558 0-0.558 0.558-1.117 0.559-1.117 0.558-1.675 1.675-2.792 2.233-1.117 1.117-2.792 1.675-3.908 2.791-0.558 0.558-1.117 0.558-1.675 1.117-1.675 1.117-3.35 1.675-5.024 3.35-0.558 0.558-1.117 0.558-1.675 1.117 0 0.558 0 0.558 0 1.116 0 1.117-1.117 2.233-2.792 1.675-1.675-0.558-2.792 0-4.466 0-1.675 0.558-3.35 1.675-5.025 2.233-0.558 0-1.117 0.558-1.675 1.117-1.675 1.117-3.35 1.675-5.025 2.233-1.117 0-2.233 1.117-3.35 1.117-0.558 0-1.117 0.558-1.675 0.558h-0.558c-2.233 1.675-4.467 2.792-6.7 4.467-0.558 0-0.558 0.558-1.117 1.116-0.558 1.117-1.117 1.675-2.233 1.675-2.792 0-3.908 2.233-3.35 4.467 0 0.558 0.558 1.117 0.559 1.675 0.558 1.117 0 2.233-0.559 2.791-0.558 0.558-2.233 0.558-2.791-0.558-1.117-1.117-1.675-2.233-2.234-3.908-0.558-1.117-1.675-2.233-2.791-2.792-1.117-0.558-2.233-0.558-3.35 0-0.558 0-0.558 0.558-1.117 0.558-1.117 1.117-2.792 1.675-4.466 1.117-0.558 0-1.675 0-1.675 0.558-0.558 0.558-0.558 1.675 0 2.234 1.117 1.117 0.558 2.233 0.558 3.908 0 2.233-1.675 3.35-3.908 2.233-0.558-0.558-1.117-0.558-1.675-1.117-0.558 0-0.558-0.558-0.558-1.116-0.558-0.558-0.558-1.675-1.117-2.792-1.117 0.558-2.233 0.558-3.35 1.117-0.558 0-1.117 0.558-1.675 0.558-1.675 0-2.233 0-2.791-1.675-0.558-1.675-1.675-1.675-2.792-2.233-2.233-0.558-5.025-0.558-7.258-1.675h-0.558c-2.233-1.675-4.467-1.675-7.258-1.675-1.675 0-3.35 0.558-5.025 0.558-1.675 0-2.792 0.558-3.908 1.675-0.558 0.558-1.117 1.117-1.675 1.117-0.558-0.558-0.558-1.117-1.117-1.675v-0.558c0-0.558-0.558-1.117-1.116-0.559-1.117 0.558-2.233-0.558-3.35-1.116-0.558-0.558-1.675-1.675-1.675-2.792-0.558-0.558-1.117-1.117-1.675-1.116-1.117 0-2.792-0.558-3.908-0.559-0.558 0-1.117 0-1.117-0.558-0.558-0.558-1.117-0.558-2.233-0.558-0.558 0-0.558-0.558-1.117-0.559 1.117 1.117 1.675 2.233 2.233 3.35 0 0.558 0.558 0.558 0.559 1.117 0.558 1.117 0 1.675-1.675 1.675-1.117 0-1.117 0-1.675 0.558 0 1.117 0 1.675 0 2.792 0 0.558 0 1.117-1.117 1.675 0 0-0.558 0-0.558 0.558-0.558 0.558-0.558 1.117 0 1.675 1.675 1.117 2.792 1.675 4.466 2.233 1.675 0 1.675 1.117 2.234 2.233 0.558 1.117 0 1.675-0.559 2.792-1.117 1.117-2.233 2.233-3.35 3.35-1.675 0.558-2.792 2.233-4.466 2.233-1.117 0-2.233-0.558-2.792-1.675-0.558-2.792-0.558-5.025 0.559-7.816 0-0.558 0.558-1.117 0-1.675-5.025 0-5.025-1.117-5.025-1.675 0-1.117 0.558-1.675 0.558-2.792 0.558-1.117 0-1.675-1.675-2.233-0.558 0-1.117 0-1.675 0-0.558 0-0.558-0.558-1.675-0.558 1.117-0.558 1.675-0.558 2.792-1.117-0.558-2.233-1.117-3.908-2.792-5.025-0.558-0.558-1.117-1.117-1.116-2.233 0-1.675-1.117-2.792-1.675-3.908-1.117-1.675-3.35-2.233-5.025-2.233-1.675-0.558-2.792-0.558-4.467-1.117-1.675-0.558-3.35-2.233-5.024-2.792-0.558-0.558-1.117-1.117-2.234-1.674-2.233-1.117-3.908-2.792-5.583-4.467-1.117-0.558-1.675-1.675-2.791-2.233-1.117-1.117-1.675-2.233-2.792-2.792-1.117-1.117-2.233-2.233-3.908-3.35-1.675-1.117-2.792-2.792-4.467-4.466-1.117-1.675-2.792-2.792-4.466-3.908-0.558 0-1.117 0-1.675 0-0.558 0-1.117 0.558-1.675 0.558-1.675 0.558-2.792 1.675-4.467 2.233 0.558-0.558 0.558-0.558 0-1.675-0.558-0.558-1.117-1.117-1.674-1.116-1.117 0-2.233 0-3.35 0-2.233 0-4.467 0.558-6.7 0.558-1.675 0-3.908 0.558-5.583 1.117 0.558 1.117 0.558 1.675 1.116 2.791-1.117 0.558-2.233 0.558-3.35 0.558-0.558 0-1.675 0.558-2.233 1.117-0.558 0-0.558 0.558-1.116 0-1.117-0.558-2.233 0-3.35 0.558h-0.559c0 0 0-0.558 0.559-0.558 0.558-0.558 1.117-1.117 1.675-1.675 0.558-0.558 1.117-0.558 2.233-1.117-0.558-0.558-0.558-1.117-0.558-1.116-0.558-0.558-1.117-0.558-1.675 0-0.558 0.558-1.117 1.117-1.675 1.675-0.558 0.558-1.117 0.558-1.675 0-0.558-0.558-0.558-1.117 0-1.675 0-0.558 0.558-1.117 1.116-1.675 0.558-0.558 0.558-1.117 1.117-1.675-1.117-1.117-1.675-2.233-2.792-2.792-1.675-1.117-3.35-2.792-4.466-4.466-1.117-2.233-2.792-3.908-5.025-5.025-0.558-0.558-1.117-1.117-1.675-1.675-0.558-0.558-0.558-0.558-1.116-1.117-1.675 0.558-2.792 1.675-4.467 2.234-0.558 0-0.558 0.558-1.117 1.116-0.558 1.117-1.675 1.117-2.791 1.117-0.558 0-1.117-0.558-0.558-1.117 0.558-1.117 1.117-2.233 2.791-1.675 0 0 0.558 0 0.558-0.558 1.117-1.117 2.233-2.792 3.909-3.908-0.558-1.675-1.675-2.792-2.234-3.908-0.558-0.558-0.558-1.117-0.558-2.234 0-0.558 0-0.558-0.558-1.116 0 0-0.558 0-1.117 0.558-0.558 0.558-1.675 1.117-2.791 0 0-0.558 0-1.117 0.558-1.675l0.558-0.558c1.675-0.558 1.675-2.233 1.675-3.908v-0.559c-0.558-1.117-0.558-1.675 0.558-2.791 1.675-1.117 3.35-3.35 3.909-5.025 0.558-1.117 1.675-1.675 2.791-2.792 1.117-1.117 2.233-2.233 2.792-3.908h0.558c2.233 0.558 2.792-1.117 3.908-2.791 0-0.558 0-1.117 0.559-1.117 1.117-1.117 1.117-2.233 0.558-3.908 0-0.558-0.558-1.675-0.558-2.233 0-0.558 0-0.558-0.559-1.117-1.675-1.117-1.675-2.233 0-3.35 1.117-0.558 1.117-1.675 1.675-2.233 0.558-1.117 0.558-2.233 0.559-3.908-0.558-1.675-0.558-3.908-1.117-5.583-0.558-2.233-1.117-5.025-1.675-7.259 0-0.558 0-0.558 0-1.116 0-1.675 0-2.792-0.558-4.467-0.558-0.558-0.558-1.675-0.559-2.233-0.558-1.675-1.117-2.792-2.791-3.35-1.675-1.117-3.908-1.675-5.583-2.791-0.558-0.558-1.117 0-1.675 0.558-0.558 1.117-1.675 2.233-2.234 3.35-0.558 0.558-1.117 1.675-1.675 2.791-1.117 1.117-3.35 2.233-5.024 0.559-0.558-1.117-1.117-1.675 0-2.792 1.117-1.675 2.233-3.35 3.908-4.466 0.558-0.558 1.117-1.675 1.675-2.234 0.558-1.117 0.558-2.233 0.558-3.35-0.558-2.233-1.117-4.467-1.117-7.258 0-2.792 0-5.025 0.559-7.816 0.558-1.117 0.558-2.792 1.116-3.908 0-0.558 0.558-1.675 1.117-2.233 1.117-1.117 2.233-2.233 2.792-3.909 0.558-1.675 1.675-3.35 1.675-5.024 0-0.558 0.558-1.117 0.558-1.675 0-0.558 0.558-1.675 0.558-2.234-0.558-1.675 0-2.792 0.558-3.908 0.558-1.117 1.117-2.792 1.675-3.908 1.117-2.233 1.117-5.025 3.35-7.258 0.558-1.117 1.117-2.233 1.675-3.35 0.558-2.233 1.675-3.908 2.792-5.583 0.558-0.558 0.558-0.558 0.558-1.117 0.558-1.675 1.675-3.35 2.792-5.025 1.117-1.675 1.117-3.35 1.675-5.024 0-0.558 0-1.117 0.558-1.675 1.675-1.675 1.117-3.908 0.558-6.142-1.117-2.792-1.675-5.583-1.116-8.374 0-0.558 0-1.117 0.558-1.117 0.558-1.117 0.558-1.675 1.117-2.792v-0.558c1.117-1.117 2.233-2.792 3.908-3.35 2.233-1.117 4.467-1.675 7.258-2.233 2.233 0 4.467-1.117 6.141-3.35 0-0.558 0.558-0.558 1.117-1.117l0.558-0.558c0.558-1.117 1.117-1.675 1.675-2.233 1.117-1.117 2.233-2.792 3.35-3.908 1.117-1.117 2.233-2.792 3.908-4.467l0.559-0.558c1.117-1.117 2.233-2.233 3.349-2.792 1.117-1.117 2.233-2.233 3.35-3.35 1.117-1.117 1.675-2.233 2.792-3.35 1.117-0.558 2.233-1.675 3.35-2.791 1.117-1.117 2.233-2.233 2.791-2.792 1.117-1.117 2.792-2.233 3.909-2.791 1.117-0.558 2.233-1.117 2.791-2.792 0.558-1.675 1.117-2.792 1.675-4.466 0-1.117 0.558-2.233 1.117-3.35 0.558 0 1.117 0 2.233-0.558-0.558-0.558-1.117-0.558-1.117-1.117 0-0.558 0.558-1.117 0.559-1.117 0-0.558 0.558-1.117 0.558-1.675 0 0 0.558 0 0.558-0.558 0 0 0.558 0 0.559-0.558-1.117 0.558-1.675 0-2.234-0.559 0.558 0.558 1.117 0.558 2.234 1.117 0 0 0.558 0 0.558-0.558 0-0.558 0-1.117 0-1.117 0 0-0.558 0-1.117 0-0.558 0-1.117 0.558-1.675 0.558zM182.097 295.292c0-0.558-0.558-0.558-0.559-1.117-0.558-1.117 0-1.675 0.559-2.233 0.558-0.558 1.117-0.558 2.233-0.558 1.117 0.558 1.675 1.117 1.675 2.233 0 0.558 0 1.675 0 2.233 0.558 2.233 0.558 2.233 2.791 2.233 1.117 0 2.233 0 3.35 0 2.233-0.558 4.467-1.675 6.7-2.233 2.233-0.558 4.467-1.117 6.7-1.675 0.558 0 1.117 0 2.233 0 2.233 0.558 3.908 0 5.583-1.117 0.558-0.558 1.675-0.558 2.233-1.116 1.117-0.558 2.233-0.558 3.35-1.117 2.792-1.675 5.583-2.792 7.817-4.466 1.675-1.117 3.35-2.233 5.024-3.35 1.675-1.117 3.35-2.233 5.025-3.35 1.117-0.558 2.792-1.675 3.908-2.792 2.233-1.675 3.908-3.35 6.142-4.466 1.117-0.558 1.675-1.117 2.233-1.675 1.117-0.558 1.675-1.675 2.792-2.233 0.558-0.558 1.117-1.117 2.233-1.675 0.558-0.558 0.558-0.558 0.558-1.117 1.675-1.117 3.35-3.35 4.467-5.025 1.117-1.117 2.233-2.233 3.35-3.908 1.675-1.675 2.792-3.908 4.466-6.141 1.117-1.117 2.233-2.792 2.792-3.909 1.117-2.233 2.233-4.467 3.908-6.141v-0.558c1.117-2.233 2.233-4.467 3.35-6.7 1.675-2.792 2.792-6.141 4.466-8.933 0.558-1.117 1.117-2.233 1.117-3.35 1.117-2.233 1.675-4.467 2.233-6.7 0-0.558 0-0.558 0.559-1.116 1.675-3.35 2.792-6.7 3.349-10.608 0.558-2.233 1.117-4.467 1.675-6.7 1.117-3.35 1.117-6.141 1.675-9.491 0.558-2.233 0.558-5.025 0.559-7.258 0.558-3.35 0.558-7.258 0-10.608 0-2.792-0.558-6.141-0.559-8.933 0-2.792-0.558-5.025-1.116-7.817-0.558-2.792-1.117-5.025-1.675-7.816-1.117-2.233-1.675-4.467-2.234-7.258-0.558-2.233-1.675-3.908-1.674-6.142 0-1.675-0.558-3.35-2.234-3.908-1.675-0.558-2.792-1.117-4.466-2.233-3.35-2.233-5.025-5.025-4.467-8.375 0-1.675 0.558-3.908 1.117-5.583 0.558-1.675 1.117-3.35 0-4.467-0.558-1.675-1.675-2.792-2.233-3.908-1.117-1.675-1.675-2.792-2.792-3.908-1.117-2.233-2.233-4.467-3.908-6.141-2.233-2.792-3.908-5.583-6.7-7.817l-0.558-0.558c-1.675-2.233-3.35-4.467-5.583-6.142-1.117-1.117-2.233-2.233-3.35-2.791-0.558-0.558-1.117-1.117-2.233-1.675-1.675-1.117-3.35-1.675-4.467-2.792-1.675-1.675-3.908-2.792-5.583-3.908 0 0-0.558 0-0.558-0.558-2.233-1.117-3.908-1.675-6.142-2.792-2.233-1.117-4.467-1.675-6.7-1.675-0.558 0-0.558 0-1.116 0-0.558-0.558-1.675-0.558-2.233-0.558-0.558 0-0.558 0-1.117 0-1.117-0.558-2.792 0-3.908 0-2.233 0.558-4.467 0.558-6.7-0.558-2.792-1.117-5.025-2.233-7.258-3.35-1.675-1.117-2.792-2.233-4.467-3.35-3.35-2.792-6.7-6.141-10.608-8.933 0.558-2.792-0.558-3.35-2.791-3.35-1.117 0-2.233 0.558-3.35 1.117-0.558 0.558-0.558 0.558-1.117 1.116-1.675 1.117-2.792 2.792-4.466 3.909-2.792 1.675-3.908 1.117-6.142 0-0.558-0.558-1.117-1.117-1.675-1.675-1.117-1.117-2.233-2.792-2.791-3.909-1.117-2.233-3.35-2.233-5.583-2.233-1.117 0-2.792 0.558-3.908 0.558-2.233 0-4.467 1.117-5.584 2.792-1.117 1.675-2.233 3.35-3.908 5.025-0.558 0.558-1.675 1.117-2.233 2.233-1.117 1.117-2.233 1.117-3.35 0-0.558-0.558-1.117-0.558-1.675-1.117-0.558 0.558-1.117 1.117-1.117 1.675-0.558 1.117-1.117 2.233-1.674 3.909-0.558 1.675-1.675 3.35-2.792 4.466-0.558 0.558-0.558 0.558-1.117 1.117-0.558 1.117-2.233 1.675-3.35 1.675-1.117 1.117-2.233 2.792-2.791 3.908-0.558 1.117-1.117 2.233-1.675 3.908-0.558 0.558-0.558 1.675-1.117 2.233-0.558 1.117-0.558 1.675-0.558 2.792 0.558 1.675-0.558 2.233-2.233 2.791-1.117 0-1.117 0-1.675 1.117 0 1.675 0.558 2.792 1.116 4.467 0.558 0.558 1.117 1.675 1.117 2.233 0 1.117 0.558 1.675 1.675 2.233 0.558 0.558 1.117 1.117 1.675 1.117 0.558 0 0.558 0.558 1.117 0.558 0.558 0.558 1.117 0 1.116-0.558 0.558-1.675 1.117-3.35 1.117-5.025 0.558-2.233 0.558-3.908 1.116-6.142 0.558-1.117 1.117-1.675 1.675-2.233 0 0 0.558 0 1.117 0v0.559c-0.558 2.792-1.675 6.141-2.233 8.933-0.558 1.117-0.558 2.233-1.117 3.349 0 0.558-0.558 1.117-1.116 1.117-1.117 0.558-2.233 1.117-3.35 1.117-0.558 0-1.117 0-1.675 0-1.117-0.558-2.233-1.675-3.35-2.234-0.558-0.558-1.117-1.117-1.675-1.674-0.558-1.117-1.117-2.233-1.675-3.35-0.558-1.117-1.117-1.675-2.233-2.234-0.558-0.558-1.117-0.558-1.675-1.116-1.117-1.117-2.233-1.675-3.908-1.675-0.558 0-1.675 0-2.234 0-0.558 0-1.675 0.558-2.233 1.116-1.117 0.558-1.675 0.558-2.791 0-2.792-1.117-5.583-0.558-8.375 0.559-1.117 0.558-2.233 1.117-3.35 1.116-2.792 0-5.025 0-7.816 0-2.792 0-5.025-0.558-7.817-1.116-1.117 0-2.233 0-3.35 0-2.233 0.558-2.792 2.233-2.233 4.466 0.558 2.233 1.117 5.025 1.117 7.258 0 1.675 0 3.35 0 5.025 0 1.117 0 1.675 0 2.792 0 1.675-0.558 3.35-0.559 5.025-0.558 3.35-2.233 6.141-4.466 8.374-1.675 1.675-3.908 3.35-6.142 3.908-1.117 0.558-2.233 1.117-3.908 1.675-2.792 1.117-5.025 3.35-6.7 6.142-0.558 1.117-1.117 2.233-1.674 3.35-1.117 1.675-1.675 2.792-2.792 4.466-0.558 1.117-1.675 2.233-2.233 3.35-0.558 1.117-1.675 1.675-1.675 2.792-1.117 2.233-1.675 4.467-2.792 6.699-0.558 1.117-0.558 2.792-1.116 3.909-1.117 2.233-1.117 4.467-1.117 7.258 0 0.558 0 1.117 0 2.233 0 2.792-0.558 6.141-0.558 8.933 0 2.792 0 5.583 0.558 8.375 0 1.117 0 2.792 0 3.908 0 2.233 0.558 5.025 0.558 7.258 0 2.233 0 5.025 1.117 7.258v0.558c0.558 2.233 0.558 4.467 1.116 6.7 0 0.558 0 1.117 0.559 1.675 1.117 3.35 1.675 6.141 2.791 9.491 0.558 2.233 1.675 4.467 2.234 6.7 0.558 2.233 2.792 4.467 3.349 7.258v0c1.675 3.35 3.35 6.7 5.584 10.05 0.558 1.117 1.675 2.233 2.233 3.35 1.117 1.675 1.675 3.35 2.791 4.466 0.558 1.117 1.675 2.233 2.234 2.792 0.558 1.117 1.117 2.233 2.233 3.35 1.117 1.117 2.233 2.792 3.35 3.908 1.675 2.792 3.908 5.025 6.141 6.7 1.117 1.117 2.233 1.675 3.35 2.791 0.558 0.558 1.117 0.558 1.117 1.117 0.558 0.558 1.117 1.117 2.233 1.675 4.467 2.233 7.816 5.583 11.725 8.933 1.675 1.675 3.35 3.35 5.583 4.466 2.233 1.675 3.908 3.35 6.7 3.908 0 0 0.558 0 0.558 0.559 1.117 1.117 2.792 1.675 3.908 2.233 2.233 1.117 5.025 2.233 7.258 3.35 0.558 0.558 1.675 0.558 2.233 1.117 1.675 0.558 3.35 1.117 5.025 1.674 1.675 0.558 2.792 1.117 4.467 1.117h0.558c1.117 0.558 1.675 0.558 2.792 0 0.558 0 1.117 0 1.116 0.558 0 0.558 0.558 0.558 1.117 0.559 0.558 0 1.117 0 2.233 0 0.558-0.558 0.558-1.117 1.117-2.234 0.558 0.558 1.117 0.558 1.116 0.559 0.558 1.117 1.675 1.117 2.792 1.116h0.558c1.117 0 1.675 0 2.233-0.558 0-0.558 1.117-0.558 1.675-0.558 1.675 0.558 3.35 0.558 5.025 1.116 1.117 0.558 2.792 0.558 3.35-0.558 0.558-0.558 1.117-1.117 2.233-0.558 1.117 0.558 1.675 0.558 2.792 0 0.558 0 1.117 0 1.117 0 1.675 0.558 2.792 0.558 4.466 1.116 2.233 0.558 2.233 0.558 3.908-1.116 0.558-0.558 1.675-0.558 2.233 0 0.558 1.117 0.558 1.675 0.559 2.791 0.558 0 0.558 0 1.116-0.558 0-1.117 0.558-1.117 1.675-1.675 0.558 0.558 0.558 0.558 1.117 0.558 1.117 1.117 1.675 1.117 2.233-0.558 0-0.558 0-1.117 0.559-1.116 0.558 0 1.117 0.558 1.116 0.558 0.558 1.117 1.675 1.675 2.233 2.791 1.117 1.117 2.792 1.117 3.35 0 0.558-0.558 1.117-0.558 1.675-0.558 0-0.558 0-1.117 0-1.675 1.675 1.117 1.117 1.117 0.559 1.117zM89.417 34.559c1.675 0.558 2.792 0.558 3.349-0.558-1.117 0.558-2.233-0.558-3.349 0.558z" fill="#fe0039" fill-rule="nonzero" stroke="none" stroke-width="1" stroke-linecap="butt" stroke-linejoin="miter" stroke-miterlimit="10" stroke-dasharray="" stroke-dashoffset="0" font-family="none" font-weight="none" font-size="none" text-anchor="none" style="mix-blend-mode: normal" data-fill-palette-color="tertiary"></path></g><g transform="matrix(1,0,0,1,64,107.98359949097684)"><svg viewBox="0 0 192 144.0328010180463" height="144.0328010180463" width="192"><g><svg viewBox="0 0 192 144.0328010180463" height="144.0328010180463" width="192"><g><svg viewBox="0 0 192 144.0328010180463" height="144.0328010180463" width="192"><g transform="matrix(1,0,0,1,0,62.869536360135214)"><svg viewBox="0 0 192 81.16326465791111" height="81.16326465791111" width="192"><g><svg viewBox="0 0 192 81.16326465791111" height="81.16326465791111" width="192"><g><svg viewBox="0 0 192 56.051329055912014" height="56.051329055912014" width="192"><g transform="matrix(1,0,0,1,0,0)"><svg width="192" viewBox="3.0999999046325684 -43.75 218.17999267578125 63.70000076293945" height="56.051329055912014" data-palette-color="#fe0039"><path d="M12.15 0.5Q7.8 0.5 5.45-2.68 3.1-5.85 3.1-12.15L3.1-12.15Q3.1-19.25 5.88-24.48 8.65-29.7 12.83-32.45 17-35.2 21-35.2L21-35.2Q23.6-35.2 25.58-34.18 27.55-33.15 27.55-31.1L27.55-31.1Q27.55-29.65 26.4-27.9L26.4-27.9Q26.1-27.5 25.9-27.33 25.7-27.15 25.4-27.15L25.4-27.15Q25.05-27.15 24.9-27.48 24.75-27.8 24.7-28.25 24.65-28.7 24.6-28.9L24.6-28.9Q24.3-30.6 23.03-31.58 21.75-32.55 19.45-32.55L19.45-32.55Q15.4-32.55 12.68-29.48 9.95-26.4 8.63-21.9 7.3-17.4 7.3-13.15L7.3-13.15Q7.3-8.3 9.1-5.65 10.9-3 14.2-3L14.2-3Q16.9-3 19.28-4.75 21.65-6.5 23.25-9.75L23.25-9.75Q23.55-10.3 23.85-10.3L23.85-10.3Q24.1-10.3 24.1-9.75L24.1-9.75Q24.1-9.45 24.05-9.15 24-8.85 23.95-8.7L23.95-8.7Q23.2-6.05 21.45-3.95 19.7-1.85 17.25-0.68 14.8 0.5 12.15 0.5L12.15 0.5ZM32.75 0.5Q30.65 0.5 30.65-2.65L30.65-2.65Q30.65-4.2 31.15-7.05L31.15-7.05 32.85-17.35Q33.05-19.15 33.05-19.4L33.05-19.4Q33.05-20.15 32.65-20.15L32.65-20.15Q31.5-20.15 29.95-17.15L29.95-17.15Q29.85-16.95 29.62-16.48 29.4-16 29.25-15.88 29.1-15.75 28.95-15.75L28.95-15.75Q28.85-15.75 28.75-15.93 28.65-16.1 28.65-16.35L28.65-16.35Q28.65-17.35 29.67-19.18 30.7-21 32.2-22.4 33.7-23.8 35.05-23.8L35.05-23.8Q35.85-23.8 36.32-23.13 36.8-22.45 36.8-21.3L36.8-21.3Q36.8-20.55 36.7-20.15L36.7-20.15 34.35-5.4Q34.25-4.7 34.25-4.5L34.25-4.5Q34.25-3.45 35.05-3.45L35.05-3.45Q36.7-3.45 38.62-5.68 40.55-7.9 42.02-11 43.5-14.1 43.95-16.45L43.95-16.45 44.65-20.1Q45.05-21.9 46.27-22.85 47.5-23.8 48.55-23.8L48.55-23.8Q48.95-23.8 48.95-23.55L48.95-23.55Q48.95-23.4 48.75-22.98 48.55-22.55 48.45-21.95L48.45-21.95Q47.75-18.85 45.7-7.55L45.7-7.55 45.4-5.95Q45.05-4.2 45.05-3.8L45.05-3.8Q45.05-3.1 45.5-3.1L45.5-3.1Q46.3-3.1 47.27-4.38 48.25-5.65 48.85-7.15L48.85-7.15Q49.15-7.7 49.35-7.7L49.35-7.7Q49.65-7.7 49.65-7.25L49.65-7.25Q49.65-6.7 49.55-6.3L49.55-6.3Q49.2-4.5 48.15-2.95 47.1-1.4 45.8-0.45 44.5 0.5 43.4 0.5L43.4 0.5Q41.45 0.5 41.55-2.6L41.55-2.6Q41.65-3.95 42.15-6.25L42.15-6.25 42.6-8.7 42.55-8.7Q39.95-4.55 37.25-2.02 34.55 0.5 32.75 0.5L32.75 0.5ZM56 0.5Q54.45 0.5 53.34-0.35 52.25-1.2 51.9-2.6L51.9-2.6Q51.8-3 52.22-3.88 52.65-4.75 53.34-5.6L53.34-5.6Q53.75-6.05 54-6.05L54-6.05Q54.25-6.05 54.4-5.65L54.4-5.65Q55.9-2.15 58.55-2.15L58.55-2.15Q59.9-2.15 60.67-2.98 61.45-3.8 61.45-5.2L61.45-5.2Q61.45-7.1 59.3-10.1L59.3-10.1 58.25-11.6Q57.05-13.3 56.57-14.4 56.09-15.5 56.09-16.75L56.09-16.75Q56.09-18.75 57.17-20.35 58.25-21.95 60-22.88 61.75-23.8 63.65-23.8L63.65-23.8Q67.25-23.8 67.25-21.35L67.25-21.35Q67.25-20.45 66.59-19.55L66.59-19.55Q66.25-18.95 66-18.95L66-18.95Q65.7-18.95 65.45-19.55L65.45-19.55Q64.9-20.5 64.12-20.93 63.34-21.35 62.15-21.35L62.15-21.35Q60.75-21.35 59.9-20.6 59.05-19.85 59.05-18.7L59.05-18.7Q59.05-18.05 59.47-17.23 59.9-16.4 61.09-14.7L61.09-14.7 62.15-13.25Q63.55-11.4 64.09-10.08 64.65-8.75 64.65-7.3L64.65-7.3Q64.65-5.45 63.45-3.63 62.25-1.8 60.25-0.65 58.25 0.5 56 0.5L56 0.5ZM75.44 0.5Q73.94 0.5 73.34-0.53 72.74-1.55 72.74-3.3L72.74-3.3Q72.74-4.6 72.97-6.08 73.19-7.55 73.24-7.85L73.24-7.85 75.29-20.7 70.24-20.7Q69.99-20.7 69.99-20.95L69.99-20.95Q69.99-21.45 71.09-22.38 72.19-23.3 72.69-23.3L72.69-23.3 75.69-23.3 76.19-26.4Q76.39-28.05 77.74-29.35 79.09-30.65 80.44-30.65L80.44-30.65Q80.69-30.65 80.69-30.4L80.69-30.4Q80.69-30.2 80.24-29.23 79.79-28.25 79.59-27.15L79.59-27.15 78.99-23.3 83.89-23.3Q84.19-23.3 84.19-23L84.19-23Q84.19-22.6 83.02-21.65 81.84-20.7 81.49-20.7L81.49-20.7 78.69-20.7 76.64-7.95Q76.59-7.6 76.37-6.25 76.14-4.9 76.14-4.15L76.14-4.15Q76.14-2.5 77.24-2.5L77.24-2.5Q78.04-2.5 78.94-3.28 79.84-4.05 80.54-5.45L80.54-5.45Q80.59-5.55 80.67-5.65 80.74-5.75 80.84-5.75L80.84-5.75Q81.09-5.75 81.09-5.1L81.09-5.1Q81.09-4.1 80.22-2.75 79.34-1.4 78.02-0.45 76.69 0.5 75.44 0.5L75.44 0.5ZM88.84 0.5Q86.74 0.5 85.67-1.13 84.59-2.75 84.59-5.65L84.59-5.65Q84.59-9.7 86.54-13.95 88.49-18.2 91.37-21 94.24-23.8 96.84-23.8L96.84-23.8Q98.79-23.8 99.84-22.08 100.89-20.35 100.89-17.55L100.89-17.55Q100.89-13.8 99.07-9.55 97.24-5.3 94.44-2.4 91.64 0.5 88.84 0.5L88.84 0.5ZM91.29-2.8Q92.94-2.8 94.29-4.48 95.64-6.15 96.44-8.93 97.24-11.7 97.24-14.8L97.24-14.8Q97.24-20.5 94.29-20.5L94.29-20.5Q92.44-20.5 91.07-18.5 89.69-16.5 88.97-13.63 88.24-10.75 88.24-8.25L88.24-8.25Q88.24-5.85 88.97-4.33 89.69-2.8 91.29-2.8L91.29-2.8ZM105.59 0.5Q105.14 0.5 105.14 0.2L105.14 0.2Q105.14 0.05 105.36-0.53 105.59-1.1 105.99-3L105.99-3Q106.54-5.35 107.01-8.05 107.49-10.75 108.39-16.85L108.39-16.85Q108.69-18.75 108.69-19.5L108.69-19.5Q108.69-20.15 108.39-20.15L108.39-20.15Q107.89-20.15 107.29-19.35 106.69-18.55 105.84-17.15L105.84-17.15Q105.59-16.7 105.39-16.38 105.19-16.05 105.06-15.9 104.94-15.75 104.79-15.75L104.79-15.75Q104.39-15.75 104.39-16.3L104.39-16.3Q104.39-17.3 105.49-19.13 106.59-20.95 108.09-22.38 109.59-23.8 110.79-23.8L110.79-23.8Q111.59-23.8 111.94-23.08 112.29-22.35 112.29-21.25L112.29-21.25Q112.29-20.2 111.79-16.8L111.79-16.8 111.54-15.05 111.59-15.05Q114.04-19.4 116.36-21.6 118.69-23.8 120.79-23.8L120.79-23.8Q121.79-23.8 122.24-23.18 122.69-22.55 122.69-21.1L122.69-21.1Q122.69-19.7 122.24-17.15L122.24-17.15 121.99-15.75 122.09-15.75Q124.34-19.7 126.61-21.75 128.89-23.8 130.69-23.8L130.69-23.8Q132.79-23.8 132.79-20.8L132.79-20.8Q132.79-19.75 132.34-17.15L132.34-17.15 131.19-11.15Q129.94-4.8 129.94-3.95L129.94-3.95Q129.94-3.05 130.69-3.05L130.69-3.05Q131.54-3.05 132.24-4.17 132.94-5.3 133.74-7.15L133.74-7.15Q133.94-7.7 134.24-7.7L134.24-7.7Q134.54-7.7 134.54-7.1L134.54-7.1Q134.54-6.65 134.49-6.3L134.49-6.3Q134.14-4.5 133.06-2.93 131.99-1.35 130.64-0.43 129.29 0.5 128.19 0.5L128.19 0.5Q126.39 0.5 126.39-2.2L126.39-2.2Q126.39-4.25 127.64-10.2L127.64-10.2Q127.79-10.95 128.31-13.7 128.84-16.45 128.94-18.3L128.94-18.3Q128.94-19.15 128.79-19.55 128.64-19.95 128.04-19.95L128.04-19.95Q126.89-19.95 125.46-18.3 124.04-16.65 122.79-14.15 121.54-11.65 120.89-9.25L120.89-9.25 119.34-1.3Q119.29-0.7 118.21-0.1 117.14 0.5 116.49 0.5L116.49 0.5Q115.79 0.5 115.79-0.1L115.79-0.1Q116.24-2.05 117.44-8.63 118.64-15.2 118.84-18.3L118.84-18.3 118.84-18.8Q118.84-19.35 118.69-19.65 118.54-19.95 118.04-19.95L118.04-19.95Q116.69-19.95 115.01-17.88 113.34-15.8 112.01-12.83 110.69-9.85 110.29-7.45L110.29-7.45 109.49-3.1Q109.19-1.8 107.89-0.65 106.59 0.5 105.59 0.5L105.59 0.5ZM131.09 19.95Q130.39 19.95 129.91 19.78 129.44 19.6 128.89 19.05L128.89 19.05Q127.94 18.1 127.94 17.5L127.94 17.5Q127.94 17.25 128.34 17.25L128.34 17.25Q128.89 17.25 129.54 17.4L129.54 17.4Q131.54 17.75 132.54 17.75L132.54 17.75Q134.69 17.75 136.06 16.55 137.44 15.35 138.31 12.78 139.19 10.2 139.84 5.75L139.84 5.75 143.74-20.35 141.09-20.35Q139.69-20.35 138.99-20.03 138.29-19.7 138.19-19.7L138.19-19.7Q137.89-19.7 137.89-20.1L137.89-20.1Q137.89-20.55 138.19-21L138.19-21Q138.79-22 139.79-22.65 140.79-23.3 142.09-23.3L142.09-23.3 144.19-23.3 144.24-23.85Q145.24-29.1 146.51-32.83 147.79-36.55 149.94-39.25L149.94-39.25Q151.74-41.5 153.39-42.25 155.04-43 157.09-43.35L157.09-43.35Q158.19-43.55 158.59-43.65 158.99-43.75 159.14-43.75L159.14-43.75Q159.39-43.75 159.39-43.5L159.39-43.5Q159.39-42.9 158.39-41.95L158.39-41.95Q157.89-41.4 157.46-41.25 157.04-41.1 156.29-41.1L156.29-41.1Q154.84-41.05 153.74-40.43 152.64-39.8 151.69-38.5L151.69-38.5Q150.24-36.4 149.39-33.02 148.54-29.65 147.74-24.85L147.74-24.85 147.49-23.3 150.19-23.3Q151.54-23.3 152.26-23.63 152.99-23.95 153.14-23.95L153.14-23.95Q153.44-23.95 153.44-23.55L153.44-23.55Q153.44-23.25 153.14-22.65L153.14-22.65Q151.74-20.35 149.24-20.35L149.24-20.35 147.09-20.35 143.69 2.75Q141.09 19.95 131.09 19.95L131.09 19.95ZM156.88 0.5Q154.78 0.5 153.71-1.13 152.63-2.75 152.63-5.65L152.63-5.65Q152.63-9.7 154.58-13.95 156.53-18.2 159.41-21 162.28-23.8 164.88-23.8L164.88-23.8Q166.83-23.8 167.88-22.08 168.93-20.35 168.93-17.55L168.93-17.55Q168.93-13.8 167.11-9.55 165.28-5.3 162.48-2.4 159.68 0.5 156.88 0.5L156.88 0.5ZM159.33-2.8Q160.98-2.8 162.33-4.48 163.68-6.15 164.48-8.93 165.28-11.7 165.28-14.8L165.28-14.8Q165.28-20.5 162.33-20.5L162.33-20.5Q160.48-20.5 159.11-18.5 157.73-16.5 157.01-13.63 156.28-10.75 156.28-8.25L156.28-8.25Q156.28-5.85 157.01-4.33 157.73-2.8 159.33-2.8L159.33-2.8ZM175.83 0.5Q173.73 0.5 172.66-1.13 171.58-2.75 171.58-5.65L171.58-5.65Q171.58-9.7 173.53-13.95 175.48-18.2 178.36-21 181.23-23.8 183.83-23.8L183.83-23.8Q185.78-23.8 186.83-22.08 187.88-20.35 187.88-17.55L187.88-17.55Q187.88-13.8 186.06-9.55 184.23-5.3 181.43-2.4 178.63 0.5 175.83 0.5L175.83 0.5ZM178.28-2.8Q179.93-2.8 181.28-4.48 182.63-6.15 183.43-8.93 184.23-11.7 184.23-14.8L184.23-14.8Q184.23-20.5 181.28-20.5L181.28-20.5Q179.43-20.5 178.06-18.5 176.68-16.5 175.96-13.63 175.23-10.75 175.23-8.25L175.23-8.25Q175.23-5.85 175.96-4.33 176.68-2.8 178.28-2.8L178.28-2.8ZM192.88 0.5Q190.33 0.5 190.33-4.4L190.33-4.4Q190.33-8.95 192.33-13.48 194.33-18 197.73-20.9 201.13-23.8 205.03-23.8L205.03-23.8 205.53-23.8Q207.18-30.7 208.63-34.2 210.08-37.7 212.48-40L212.48-40Q214.08-41.5 215.38-42.05 216.68-42.6 218.93-43.05L218.93-43.05Q219.93-43.25 220.35-43.43 220.78-43.6 220.93-43.6L220.93-43.6Q221.28-43.6 221.28-43.2L221.28-43.2Q221.28-42.55 220.33-41.75L220.33-41.75Q219.83-41.3 219.4-41.15 218.98-41 218.58-40.95 218.18-40.9 217.98-40.85L217.98-40.85Q215.38-40.5 213.58-38.25L213.58-38.25Q212.23-36.5 211.2-33.25 210.18-30 208.43-21.9L208.43-21.9Q205.53-7.9 205.18-5.15L205.18-5.15Q205.13-4.8 205.13-4.3L205.13-4.3Q205.13-3.2 205.78-3.2L205.78-3.2Q206.58-3.2 207.3-4.28 208.03-5.35 208.83-7.15L208.83-7.15Q209.13-7.7 209.38-7.7L209.38-7.7Q209.68-7.7 209.68-7.15L209.68-7.15 209.58-6.3Q209.18-4.55 208.1-2.98 207.03-1.4 205.7-0.45 204.38 0.5 203.28 0.5L203.28 0.5Q201.68 0.5 201.68-2.15L201.68-2.15Q201.68-3.15 201.88-4.55L201.88-4.55 202.73-8.95 202.68-8.95Q200.83-5.75 197.98-2.63 195.13 0.5 192.88 0.5L192.88 0.5ZM195.23-3.6Q196.63-3.6 198.45-5.78 200.28-7.95 201.85-11.1 203.43-14.25 204.03-16.75L204.03-16.75 204.83-19.95Q203.33-20.95 201.68-20.95L201.68-20.95Q199.53-20.95 197.75-18.48 195.98-16 194.98-12.48 193.98-8.95 193.98-6.1L193.98-6.1Q193.98-4.85 194.25-4.23 194.53-3.6 195.23-3.6L195.23-3.6Z" opacity="1" transform="matrix(1,0,0,1,0,0)" fill="#fe0039" class="undefined-text-0" data-fill-palette-color="primary" id="text-0"></path></svg></g></svg></g><g transform="matrix(1,0,0,1,0,69.2837026141155)"><svg viewBox="0 0 192 11.87956204379562" height="11.87956204379562" width="192"><g transform="matrix(1,0,0,1,0,0)"><svg width="192" viewBox="2.609999895095825 -39.869998931884766 856.1700439453125 52.97999954223633" height="11.87956204379562" data-palette-color="#c1c1c1"><path d="M2.91-32.52L2.91-32.52Q3.05-32.62 3.41-32.78 3.76-32.93 4.24-33.13 4.71-33.33 5.26-33.56 5.81-33.79 6.37-34.01L6.37-34.01 9.2-35.13Q9.52-35.28 9.79-35.28L9.79-35.28Q9.99-35.28 10.22-35.17 10.45-35.06 10.74-34.77L10.74-34.77 16.38-23.83 16.53-24.19 18.95-28.66Q19.41-29.49 19.86-30.3 20.31-31.1 20.67-31.74 21.02-32.37 21.26-32.76 21.51-33.15 21.56-33.15L21.56-33.15 29.93-35.25Q30.22-35.33 30.42-35.33L30.42-35.33Q30.98-35.33 30.98-34.81L30.98-34.81Q30.96-34.69 30.93-34.48 30.91-34.28 30.79-34.03L30.79-34.03 23.61-20.73Q23.07-19.73 22.52-18.73 21.97-17.72 21.46-16.83 20.95-15.94 20.54-15.21 20.14-14.48 19.9-14.01L19.9-14.01 19.73-13.21 18.36-4.05Q18.29-3.64 18.24-3.37 18.19-3.1 18.1-2.93 18.02-2.76 17.88-2.64 17.75-2.51 17.5-2.39L17.5-2.39 10.57 1.25Q10.18 1.44 9.75 1.56 9.33 1.68 8.94 1.68L8.94 1.68Q8.52 1.68 8.23 1.5 7.93 1.32 7.93 0.9L7.93 0.9 7.93 0.81Q8.03-0.59 8.29-2.43 8.54-4.27 8.84-6.03L8.84-6.03 10.21-15.09Q9.81-15.92 9.18-17.29 8.54-18.65 7.81-20.24 7.08-21.83 6.29-23.51 5.49-25.2 4.8-26.7 4.1-28.2 3.55-29.35 3-30.49 2.73-31.03L2.73-31.03Q2.61-31.4 2.61-31.79L2.61-31.79Q2.61-32.01 2.67-32.21 2.73-32.42 2.91-32.52ZM40.09 1.27L40.09 1.27Q36.64 1.27 34.04 0.15 31.44-0.98 29.68-2.84 27.93-4.71 27.05-7.14 26.17-9.57 26.17-12.18L26.17-12.18Q26.17-14.79 27.02-17.15 27.88-19.51 29.42-21.37 30.95-23.24 33.1-24.5 35.25-25.76 37.84-26.2L37.84-26.2Q38.23-26.22 38.23-26.37L38.23-26.37Q38.23-26.64 38.17-26.87 38.11-27.1 38.11-27.27L38.11-27.27Q38.11-27.54 38.21-27.64 38.3-27.73 38.43-27.73L38.43-27.73Q43.09-27.73 46.36-26.67 49.63-25.61 51.68-23.78 53.73-21.95 54.66-19.46 55.59-16.97 55.59-14.11L55.59-14.11Q55.59-10.47 54.37-7.62 53.15-4.76 51.04-2.78 48.92-0.81 46.1 0.23 43.28 1.27 40.09 1.27ZM35.57-12.45L35.57-12.45Q35.57-11.13 35.85-9.84 36.13-8.54 36.78-7.5 37.42-6.45 38.47-5.8 39.52-5.15 41.09-5.15L41.09-5.15Q42.21-5.2 43.05-5.65 43.89-6.1 44.5-6.82 45.11-7.54 45.52-8.45 45.92-9.35 46.15-10.31 46.38-11.28 46.48-12.21 46.58-13.13 46.58-13.89L46.58-13.89Q46.58-15.16 46.2-16.38 45.82-17.6 45.09-18.53 44.36-19.46 43.27-20.03 42.19-20.61 40.77-20.61L40.77-20.61Q39.3-20.61 38.3-19.74 37.3-18.87 36.7-17.6 36.11-16.33 35.84-14.93 35.57-13.53 35.57-12.45ZM86.81-27L84.52-3.03Q84.44-2.22 84.32-1.92 84.2-1.61 83.78-1.51L83.78-1.51Q81.71-0.93 79.45-0.33 77.19 0.27 75.07 1.25L75.07 1.25Q75 1.27 74.85 1.27L74.85 1.27Q74.65 1.27 74.62 1.17 74.58 1.07 74.58 0.95L74.58 0.95Q74.58 0.9 74.59 0.78 74.6 0.66 74.65 0.33 74.7 0 74.79-0.59 74.87-1.17 75.02-2.15L75.02-2.15Q72.29-0.37 70.17 0.45 68.06 1.27 66.43 1.27L66.43 1.27Q62.35 1.27 60.48-0.7 58.61-2.66 58.61-6.57L58.61-6.57Q58.61-7.28 58.64-8.02 58.66-8.76 58.78-9.55L58.78-9.55Q59.05-12.43 59.25-14.49 59.44-16.55 59.57-17.99 59.69-19.43 59.77-20.35 59.86-21.26 59.92-21.88 59.98-22.49 60.02-22.89 60.05-23.29 60.1-23.68L60.1-23.68Q60.2-24.46 60.29-24.78 60.37-25.1 60.83-25.2L60.83-25.2Q61.98-25.42 63.02-25.6 64.06-25.78 65.07-25.99 66.08-26.2 67.13-26.44 68.18-26.68 69.36-27.03L69.36-27.03Q69.4-27.03 69.45-27.04 69.5-27.05 69.55-27.05L69.55-27.05Q69.84-27.05 69.84-26.86L69.84-26.86 69.84-26.81Q69.75-25.98 69.67-25.24 69.6-24.51 69.53-23.74 69.45-22.97 69.37-22.09 69.28-21.22 69.16-20.06 69.04-18.9 68.87-17.38 68.7-15.87 68.45-13.87L68.45-13.87Q68.31-12.4 68.16-10.95 68.01-9.5 68.01-8.25L68.01-8.25Q68.01-7.57 68.11-6.99 68.21-6.42 68.46-6.02 68.72-5.62 69.14-5.4 69.55-5.18 70.21-5.18L70.21-5.18Q70.72-5.18 71.6-5.41 72.48-5.64 73.36-6.21 74.24-6.79 74.91-7.73 75.58-8.67 75.68-10.11L75.68-10.11Q75.85-12.52 75.98-14.15 76.12-15.77 76.22-16.88 76.31-17.99 76.39-18.75 76.46-19.51 76.52-20.2 76.58-20.9 76.63-21.69 76.68-22.49 76.73-23.68L76.73-23.68Q76.8-24.49 76.91-24.79 77.02-25.1 77.46-25.2L77.46-25.2Q79.68-25.63 82-26.09 84.32-26.54 86.54-27.25L86.54-27.25Q86.74-27.25 86.77-27.19 86.81-27.12 86.81-27L86.81-27ZM99.4-1.78L99.4-1.78Q99.72-2.42 100.06-3.21 100.41-4 100.7-4.93L100.7-4.93 101.36-6.54Q100.92-7.2 100.47-7.97 100.01-8.74 99.65-9.55 99.28-10.35 99.05-11.16 98.82-11.96 98.82-12.72L98.82-12.72Q98.82-12.77 99.2-12.81 99.57-12.84 100.15-12.87 100.72-12.89 101.39-12.9 102.07-12.92 102.64-12.93 103.21-12.94 103.59-12.95 103.97-12.96 103.97-12.96L103.97-12.96Q104.53-14.43 105.07-15.75 105.61-17.07 106.14-18.41 106.68-19.75 107.22-21.15 107.75-22.56 108.29-24.17L108.29-24.17Q109.32-27.2 110.29-29.49 111.27-31.79 112.12-33.76L112.12-33.76Q112.22-34.01 112.45-34.22 112.69-34.42 112.95-34.57 113.22-34.72 113.48-34.81 113.74-34.91 113.88-34.96L113.88-34.96Q113.98-34.99 114.63-35.18 115.27-35.38 116.1-35.6 116.93-35.82 117.75-35.99 118.57-36.16 119.06-36.16L119.06-36.16 119.5-36.16Q119.89-36.16 120.24-35.97 120.6-35.79 120.72-35.25L120.72-35.25Q121.89-32.25 123.22-28.7 124.55-25.15 125.82-20.87L125.82-20.87Q126.5-18.58 127.16-16.53 127.82-14.48 128.48-12.52 129.14-10.57 129.81-8.62 130.48-6.67 131.19-4.59L131.19-4.59Q131.41-3.71 131.64-3.2 131.87-2.69 132.07-2.39 132.27-2.1 132.39-1.97 132.51-1.83 132.51-1.68L132.51-1.68Q132.51-1.54 132.05-1.39L132.05-1.39 126.8 0.32Q126.21 0.54 125.6 0.76 124.99 0.98 124.45 1.15 123.92 1.32 123.51 1.43 123.11 1.54 122.94 1.54L122.94 1.54 122.79 1.54Q122.45 1.54 122.3 1.33 122.16 1.12 122.11 0.93L122.11 0.93Q121.87 0.12 121.62-0.52 121.38-1.17 121.14-1.82 120.91-2.47 120.68-3.2 120.45-3.93 120.23-4.93L120.23-4.93Q120.18-5.05 119.96-5.14 119.74-5.22 119.44-5.27 119.13-5.32 118.79-5.33 118.45-5.35 118.15-5.35L118.15-5.35Q117.23-5.35 116.65-5.33 116.08-5.32 115.64-5.31 115.2-5.3 114.8-5.29 114.39-5.27 113.81-5.27L113.81-5.27Q113.1-5.27 112.36-5.29 111.61-5.3 111-5.32L111-5.32 109.61-5.37Q108.97-3.61 108.34-2.08 107.7-0.54 106.97 1.1L106.97 1.1Q106.92 1.29 106.74 1.42 106.56 1.54 106.36 1.54L106.36 1.54Q106.22 1.54 106.19 1.51L106.19 1.51Q103.82 0.66 102.21-0.17 100.6-1 99.4-1.78ZM115.86-23.73L115.86-23.73Q115.27-21.56 114.7-19.79 114.13-18.02 113.65-16.65 113.17-15.28 112.83-14.34 112.49-13.4 112.34-12.89L112.34-12.89 112.34-12.67Q112.34-12.52 112.32-12.48L112.32-12.48 118.18-12.48Q117.91-13.67 117.6-14.89 117.3-16.11 117.01-17.46 116.71-18.8 116.42-20.34 116.13-21.88 115.86-23.73ZM156.02-27.44L154.5-19.87Q153.99-19.92 153.36-19.98 152.72-20.04 152.01-20.04L152.01-20.04Q150.94-20.04 149.83-19.86 148.72-19.68 147.77-19.14 146.81-18.6 146.13-17.66 145.45-16.72 145.25-15.23L145.25-15.23Q145.08-13.43 144.97-12.27 144.86-11.11 144.81-10.36 144.76-9.62 144.73-9.17 144.69-8.72 144.67-8.33L144.67-8.33Q144.67-8.23 144.63-7.79 144.59-7.35 144.52-6.76 144.45-6.18 144.38-5.49 144.32-4.81 144.25-4.22 144.18-3.64 144.14-3.2 144.1-2.76 144.1-2.66L144.1-2.66Q144.1-2.47 144.12-2.33 144.13-2.2 144.13-2.08L144.13-2.08Q144.13-1.88 143.95-1.75 143.76-1.61 143.13-1.44L143.13-1.44 136.66 0.88Q136.39 0.98 135.95 1.12 135.51 1.27 135.09 1.27L135.09 1.27Q134.75 1.27 134.5 1.1 134.24 0.93 134.24 0.51L134.24 0.51 136.34-23.68Q136.41-24.49 136.52-24.79 136.63-25.1 137.07-25.2L137.07-25.2Q139.29-25.63 141.66-26.09 144.03-26.54 146.25-27.25L146.25-27.25Q146.45-27.25 146.48-27.19 146.52-27.12 146.52-27L146.52-27Q146.52-26.95 146.51-26.86 146.5-26.76 146.44-26.42 146.37-26.07 146.26-25.38 146.15-24.68 145.96-23.44L145.96-23.44Q147.08-24.32 148.44-25.05 149.79-25.78 151.16-26.31 152.53-26.83 153.8-27.14 155.07-27.44 156.02-27.44L156.02-27.44ZM170.64-27.25L170.64-27.25Q172.96-27.25 174.85-26.38 176.74-25.51 178.1-24.13 179.45-22.75 180.19-21.04 180.92-19.34 180.92-17.63L180.92-17.63Q180.92-16.11 179.99-14.59 179.06-13.06 177.39-11.84 175.72-10.62 173.37-9.86 171.03-9.11 168.22-9.11L168.22-9.11Q166.76-9.11 165.15-9.4L165.15-9.4Q165.24-8.35 165.76-7.59 166.27-6.84 167.05-6.35 167.83-5.86 168.82-5.63 169.81-5.4 170.86-5.4L170.86-5.4Q172.03-5.4 173.12-5.6 174.2-5.81 175.2-6.15 176.21-6.49 177.13-6.91 178.06-7.32 178.89-7.74L178.89-7.74Q179.11-7.79 179.27-7.82 179.43-7.86 179.57-7.86L179.57-7.86Q179.57-7.86 179.56-7.47 179.55-7.08 179.55-6.37 179.55-5.66 179.54-4.66 179.53-3.66 179.5-2.44L179.5-2.44Q179.57-2.32 179.6-2.2 179.62-2.08 179.62-2L179.62-2Q179.62-1.71 179.09-1.37 178.55-1.03 177.68-0.66 176.82-0.29 175.71 0.05 174.59 0.39 173.45 0.67 172.3 0.95 171.23 1.11 170.15 1.27 169.35 1.27L169.35 1.27Q166.71 1.27 164.23 0.35 161.75-0.56 159.84-2.27 157.92-3.98 156.77-6.42 155.62-8.86 155.62-11.91L155.62-11.91Q155.62-15.11 156.72-17.91 157.82-20.7 159.81-22.78 161.8-24.85 164.56-26.05 167.32-27.25 170.64-27.25ZM170.35-20.75L170.35-20.75Q169.35-20.75 168.5-20.32 167.66-19.9 166.96-19.1 166.27-18.31 165.76-17.2 165.24-16.09 164.93-14.75L164.93-14.75Q167.44-15.19 169.1-15.67 170.76-16.16 171.76-16.66 172.76-17.16 173.18-17.66 173.59-18.16 173.59-18.63L173.59-18.63Q173.59-19.07 173.26-19.46 172.93-19.85 172.45-20.14 171.96-20.43 171.38-20.59 170.81-20.75 170.35-20.75ZM200.52 0.88L200.52 0.78Q200.64-1 200.76-2.66 200.88-4.32 200.98-5.88L200.98-5.88 201.86-17.41Q202.01-18.73 202.1-19.81 202.2-20.9 202.26-21.94 202.32-22.97 202.38-24.04 202.45-25.1 202.52-26.39L202.52-26.39Q201.71-26.42 200.82-26.42 199.93-26.42 198.95-26.42L198.95-26.42 194.24-26.42Q193.97-26.42 193.91-26.62 193.85-26.83 193.85-27L193.85-27 193.85-27.17 196.54-34.23 196.51-34.33Q196.51-34.45 196.67-34.53 196.83-34.62 197.39-34.67L197.39-34.67Q200.76-34.86 203.92-35.05 207.08-35.23 210.17-35.38 213.26-35.52 216.35-35.67 219.44-35.82 222.71-35.94L222.71-35.94Q223-35.94 223.33-35.86 223.66-35.79 223.66-35.33L223.66-35.33Q223.66-35.28 223.64-35.23 223.61-35.18 223.61-35.13L223.61-35.13Q223.22-34.13 222.89-33.23 222.56-32.32 222.25-31.45 221.93-30.57 221.6-29.66 221.27-28.76 220.88-27.76L220.88-27.76Q220.85-27.73 220.78-27.53 220.71-27.32 220.56-27.06 220.41-26.81 220.17-26.59 219.93-26.37 219.56-26.34L219.56-26.34Q219.44-26.37 219.32-26.37 219.19-26.37 219.05-26.37L219.05-26.37 212.53-26.37Q212.41-25.12 212.3-23.73 212.19-22.34 212.04-21.02L212.04-21.02 210.26-1.95Q210.23-1.73 210.17-1.51 210.11-1.29 209.84-1.2L209.84-1.2 202.93 1.29Q202.67 1.39 202.23 1.54 201.79 1.68 201.37 1.68L201.37 1.68Q201.03 1.68 200.77 1.51 200.52 1.34 200.52 0.88L200.52 0.88ZM223 0.37L225.78-35.5Q225.78-35.64 225.77-35.77 225.76-35.89 225.76-36.01L225.76-36.01Q225.76-36.23 225.93-36.39 226.1-36.55 226.76-36.72L226.76-36.72 233.62-38.35Q233.89-38.4 234.33-38.57 234.77-38.75 235.18-38.75L235.18-38.75Q236.04-38.75 236.04-37.96L236.04-37.96Q236.04-37.92 235.96-36.96 235.89-36.01 235.77-34.59 235.65-33.18 235.5-31.51 235.35-29.83 235.21-28.32 235.06-26.81 234.94-25.67 234.82-24.54 234.74-24.19L234.74-24.19Q235.89-24.83 237.14-25.39 238.38-25.95 239.64-26.37 240.9-26.78 242.15-27.01 243.41-27.25 244.58-27.25L244.58-27.25Q246.07-27.25 247.37-26.82 248.66-26.39 249.62-25.4 250.59-24.41 251.14-22.81 251.69-21.22 251.69-18.9L251.69-18.9Q251.69-18.31 251.66-17.69 251.64-17.07 251.56-16.41L251.56-16.41 250.51-6.42Q250.39-5.4 250.37-4.28 250.34-3.17 250.34-2L250.34-2Q250.34-1.81 250.36-1.67 250.37-1.54 250.37-1.44L250.37-1.44Q250.37-1.22 250.19-1.1 250-0.98 249.37-0.78L249.37-0.78 243.39 0.88Q243.12 0.95 242.68 1.11 242.24 1.27 241.82 1.27L241.82 1.27Q241.41 1.27 241.19 1.09 240.97 0.9 240.97 0.37L240.97 0.37Q241.14-1.46 241.25-2.59 241.36-3.71 241.42-4.38 241.48-5.05 241.53-5.41 241.58-5.76 241.6-6.04 241.63-6.32 241.68-6.68 241.73-7.03 241.79-7.71 241.85-8.4 241.96-9.52 242.07-10.64 242.24-12.48L242.24-12.48Q242.34-13.45 242.45-14.42 242.56-15.38 242.56-16.19L242.56-16.19Q242.56-17.21 242.45-18.05 242.34-18.9 242.06-19.49 241.77-20.09 241.29-20.43 240.8-20.78 240.04-20.78L240.04-20.78Q239.48-20.78 238.52-20.53 237.55-20.29 236.59-19.73 235.62-19.17 234.88-18.25 234.13-17.33 234.04-15.99L234.04-15.99Q233.84-14.11 233.73-12.92 233.62-11.72 233.55-10.94 233.47-10.16 233.44-9.69 233.4-9.23 233.38-8.84L233.38-8.84Q233.35-8.72 233.3-8.24 233.25-7.76 233.18-7.1 233.11-6.45 233.03-5.7 232.96-4.96 232.9-4.3 232.84-3.64 232.8-3.16 232.77-2.69 232.77-2.56L232.77-2.56Q232.77-2.37 232.78-2.23 232.79-2.1 232.79-1.98L232.79-1.98Q232.79-1.78 232.61-1.65 232.42-1.51 231.79-1.34L231.79-1.34 225.42 0.88Q225.15 0.98 224.71 1.12 224.27 1.27 223.85 1.27L223.85 1.27Q223.49 1.27 223.24 1.06 223 0.85 223 0.37L223 0.37ZM269.97-27.25L269.97-27.25Q272.29-27.25 274.18-26.38 276.07-25.51 277.43-24.13 278.78-22.75 279.52-21.04 280.25-19.34 280.25-17.63L280.25-17.63Q280.25-16.11 279.32-14.59 278.39-13.06 276.72-11.84 275.05-10.62 272.7-9.86 270.36-9.11 267.55-9.11L267.55-9.11Q266.09-9.11 264.48-9.4L264.48-9.4Q264.57-8.35 265.09-7.59 265.6-6.84 266.38-6.35 267.16-5.86 268.15-5.63 269.14-5.4 270.19-5.4L270.19-5.4Q271.36-5.4 272.45-5.6 273.53-5.81 274.54-6.15 275.54-6.49 276.46-6.91 277.39-7.32 278.22-7.74L278.22-7.74Q278.44-7.79 278.6-7.82 278.76-7.86 278.91-7.86L278.91-7.86Q278.91-7.86 278.89-7.47 278.88-7.08 278.88-6.37 278.88-5.66 278.87-4.66 278.86-3.66 278.83-2.44L278.83-2.44Q278.91-2.32 278.93-2.2 278.95-2.08 278.95-2L278.95-2Q278.95-1.71 278.42-1.37 277.88-1.03 277.01-0.66 276.15-0.29 275.04 0.05 273.93 0.39 272.78 0.67 271.63 0.95 270.56 1.11 269.48 1.27 268.68 1.27L268.68 1.27Q266.04 1.27 263.56 0.35 261.08-0.56 259.17-2.27 257.25-3.98 256.1-6.42 254.96-8.86 254.96-11.91L254.96-11.91Q254.96-15.11 256.05-17.91 257.15-20.7 259.14-22.78 261.13-24.85 263.89-26.05 266.65-27.25 269.97-27.25ZM269.68-20.75L269.68-20.75Q268.68-20.75 267.83-20.32 266.99-19.9 266.3-19.1 265.6-18.31 265.09-17.2 264.57-16.09 264.26-14.75L264.26-14.75Q266.77-15.19 268.43-15.67 270.09-16.16 271.09-16.66 272.09-17.16 272.51-17.66 272.92-18.16 272.92-18.63L272.92-18.63Q272.92-19.07 272.59-19.46 272.27-19.85 271.78-20.14 271.29-20.43 270.71-20.59 270.14-20.75 269.68-20.75ZM299.73 1.27L295.28 1.27Q295.01 1.22 294.89 1 294.77 0.78 294.77 0.51L294.77 0.51Q294.77 0.29 294.87 0.12L294.87 0.12 297.87-5.62Q297.89-5.71 297.96-6.37 298.02-7.03 298.09-8.02 298.16-9.01 298.25-10.23 298.33-11.45 298.43-12.65 298.53-13.84 298.62-14.93 298.7-16.02 298.77-16.75L298.77-16.75Q298.8-17.04 298.85-17.64 298.9-18.24 298.94-19.02 298.99-19.8 299.07-20.7 299.14-21.61 299.21-22.51L299.21-22.51 299.55-27.61Q298.9-27.47 298.19-27.31 297.48-27.15 296.81-27.03 296.14-26.9 295.54-26.82 294.94-26.73 294.5-26.73L294.5-26.73Q294.23-26.73 294.1-26.98 293.96-27.22 293.96-27.49L293.96-27.49Q293.96-27.81 294.11-27.95L294.11-27.95 300.31-33.74Q301.07-34.42 301.81-34.85 302.56-35.28 303.61-35.52 304.66-35.77 306.18-35.85 307.71-35.94 310.05-35.94L310.05-35.94Q314.06-35.94 317.16-35.11 320.26-34.28 322.41-32.74L322.41-32.74Q323.99-31.64 325.24-30.44 326.48-29.25 327.34-27.8 328.19-26.34 328.63-24.6 329.07-22.85 329.07-20.65L329.07-20.65Q329.07-16.48 327.83-13.23 326.58-9.99 324.43-7.56 322.28-5.13 319.42-3.44 316.55-1.76 313.29-0.71 310.03 0.34 306.55 0.81 303.07 1.27 299.73 1.27L299.73 1.27ZM309.47-28.13L309.47-28.13 309.17-25.17Q309.03-23.63 308.87-21.89 308.71-20.14 308.56-18.35 308.42-16.55 308.27-14.81 308.12-13.06 308-11.55 307.88-10.03 307.78-8.84 307.68-7.64 307.61-6.93L307.61-6.93 307.54-6.2Q310.49-6.2 312.53-7.15 314.57-8.11 315.84-9.78 317.11-11.45 317.68-13.7 318.26-15.94 318.26-18.53L318.26-18.53Q318.26-20.39 317.74-22.11 317.23-23.83 316.25-25.39L316.25-25.39Q315.28-26.95 313.86-27.73 312.45-28.52 310.66-28.52L310.66-28.52Q310.37-28.52 310.03-28.38 309.69-28.25 309.47-28.13ZM346.28-27.25L346.28-27.25Q348.6-27.25 350.49-26.38 352.38-25.51 353.74-24.13 355.09-22.75 355.83-21.04 356.56-19.34 356.56-17.63L356.56-17.63Q356.56-16.11 355.63-14.59 354.7-13.06 353.03-11.84 351.36-10.62 349.02-9.86 346.67-9.11 343.86-9.11L343.86-9.11Q342.4-9.11 340.79-9.4L340.79-9.4Q340.89-8.35 341.4-7.59 341.91-6.84 342.69-6.35 343.47-5.86 344.46-5.63 345.45-5.4 346.5-5.4L346.5-5.4Q347.67-5.4 348.76-5.6 349.85-5.81 350.85-6.15 351.85-6.49 352.78-6.91 353.7-7.32 354.53-7.74L354.53-7.74Q354.75-7.79 354.91-7.82 355.07-7.86 355.22-7.86L355.22-7.86Q355.22-7.86 355.2-7.47 355.19-7.08 355.19-6.37 355.19-5.66 355.18-4.66 355.17-3.66 355.14-2.44L355.14-2.44Q355.22-2.32 355.24-2.2 355.27-2.08 355.27-2L355.27-2Q355.27-1.71 354.73-1.37 354.19-1.03 353.32-0.66 352.46-0.29 351.35 0.05 350.24 0.39 349.09 0.67 347.94 0.95 346.87 1.11 345.79 1.27 344.99 1.27L344.99 1.27Q342.35 1.27 339.87 0.35 337.39-0.56 335.48-2.27 333.56-3.98 332.41-6.42 331.27-8.86 331.27-11.91L331.27-11.91Q331.27-15.11 332.36-17.91 333.46-20.7 335.45-22.78 337.44-24.85 340.2-26.05 342.96-27.25 346.28-27.25ZM345.99-20.75L345.99-20.75Q344.99-20.75 344.14-20.32 343.3-19.9 342.61-19.1 341.91-18.31 341.4-17.2 340.89-16.09 340.57-14.75L340.57-14.75Q343.08-15.19 344.74-15.67 346.4-16.16 347.4-16.66 348.41-17.16 348.82-17.66 349.24-18.16 349.24-18.63L349.24-18.63Q349.24-19.07 348.91-19.46 348.58-19.85 348.09-20.14 347.6-20.43 347.03-20.59 346.45-20.75 345.99-20.75ZM360.05-0.07L359.73-6.74Q359.73-6.76 359.72-6.77 359.71-6.79 359.71-6.81L359.71-6.81Q359.71-7.13 360.05-7.13L360.05-7.13Q360.27-7.13 360.44-6.96L360.44-6.96Q361.42-6.03 362.67-5.44 363.93-4.86 365.39-4.86L365.39-4.86Q365.79-4.86 366.3-4.94 366.81-5.03 367.27-5.22 367.74-5.42 368.04-5.75 368.35-6.08 368.35-6.57L368.35-6.57Q368.35-7.1 368.08-7.56 367.81-8.01 367.37-8.3L367.37-8.3Q367.13-8.47 366.52-8.9 365.91-9.33 365.21-9.81 364.52-10.3 363.89-10.74 363.27-11.18 363.03-11.38L363.03-11.38Q361.93-12.21 361.28-13.06 360.63-13.92 360.29-14.83 359.95-15.75 359.85-16.75 359.76-17.75 359.76-18.87L359.76-18.87Q359.76-20.58 360.66-22.09 361.56-23.61 363.04-24.76 364.52-25.9 366.4-26.57 368.28-27.25 370.23-27.25L370.23-27.25Q371.84-27.25 373.4-26.76 374.97-26.27 376.31-25.1L376.31-25.1Q376.43-23.56 376.48-22.07 376.53-20.58 376.63-18.95L376.63-18.95Q376.63-18.63 376.48-18.52 376.33-18.41 376.14-18.41L376.14-18.41Q375.97-18.41 375.84-18.53L375.84-18.53Q375.28-19.07 374.7-19.59 374.11-20.12 373.46-20.52 372.82-20.92 372.08-21.18 371.35-21.44 370.52-21.44L370.52-21.44Q370.01-21.44 369.5-21.35 368.98-21.26 368.57-21.03 368.15-20.8 367.9-20.41 367.64-20.02 367.64-19.41L367.64-19.41Q367.64-18.7 367.81-18.19 367.98-17.68 368.62-17.19L368.62-17.19 373.16-14.11Q374.4-13.26 375.17-12.44 375.94-11.62 376.38-10.82 376.82-10.01 376.98-9.22 377.14-8.42 377.14-7.64L377.14-7.64Q377.14-5.44 376.12-3.77 375.11-2.1 373.5-0.99 371.89 0.12 369.85 0.7 367.81 1.27 365.76 1.27L365.76 1.27Q364.2 1.27 362.75 0.94 361.29 0.61 360.05-0.07L360.05-0.07ZM381.26-10.35L381.26-10.35Q381.58-13.7 381.9-16.97 382.21-20.24 382.46-23.68L382.46-23.68Q382.51-24.49 382.62-24.79 382.73-25.1 383.17-25.2L383.17-25.2Q385.24-25.61 387.51-26.06 389.78-26.51 391.91-27.22L391.91-27.22Q391.98-27.25 392.13-27.25L392.13-27.25Q392.39-27.25 392.39-27.05L392.39-27.05 390.2-3.27Q390.12-2.47 390.03-2.16 389.93-1.86 389.49-1.76L389.49-1.76Q387.41-1.12 385.29-0.34 383.17 0.44 380.8 1.25L380.8 1.25Q380.72 1.27 380.58 1.27L380.58 1.27Q380.31 1.27 380.31 1.03L380.31 1.03Q380.31 1 380.36 0.37 380.41-0.27 380.49-1.27 380.58-2.27 380.68-3.52 380.77-4.76 380.88-6.01 380.99-7.25 381.09-8.4 381.19-9.55 381.26-10.35ZM383.09-29.83L383.09-29.83Q383.17-30.88 383.2-31.45 383.24-32.01 383.26-32.29 383.29-32.57 383.29-32.64 383.29-32.71 383.3-32.75 383.31-32.79 383.32-32.9 383.34-33.01 383.36-33.36 383.39-33.72 383.43-34.4 383.48-35.08 383.58-36.28L383.58-36.28Q383.63-37.08 383.74-37.39 383.85-37.7 384.29-37.79L384.29-37.79Q386.36-38.21 388.63-38.66 390.9-39.11 393.03-39.82L393.03-39.82Q393.1-39.84 393.25-39.84L393.25-39.84Q393.32-39.7 393.44-39.65L393.44-39.65 393.52-39.6 392.98-32.91Q392.91-32.1 392.8-31.79 392.69-31.47 392.27-31.4L392.27-31.4Q390.2-31.01 388.07-30.54 385.95-30.08 383.58-29.61L383.58-29.61Q383.51-29.59 383.36-29.59L383.36-29.59Q383.09-29.59 383.09-29.83ZM413.34-17.04L413.36-17.41Q413.12-17.97 412.69-18.55 412.26-19.14 411.7-19.63 411.14-20.12 410.48-20.42 409.82-20.73 409.09-20.73L409.09-20.73Q408.09-20.73 407.21-19.9 406.33-19.07 405.67-17.69 405.01-16.31 404.64-14.54 404.26-12.77 404.26-10.86L404.26-10.86Q404.26-9.69 404.46-8.65 404.67-7.62 405.11-6.84 405.55-6.05 406.25-5.59 406.94-5.13 407.92-5.13L407.92-5.13Q409.38-5.13 410.6-6.04 411.83-6.96 412.68-8.42L412.68-8.42Q412.7-8.94 412.75-9.64 412.8-10.35 412.88-11.36 412.95-12.38 413.06-13.76 413.17-15.14 413.34-17.04L413.34-17.04ZM423.96-25.71L421.44-2.66Q421.2-0.24 420.35 1.86 419.49 3.96 418.19 5.7 416.88 7.45 415.21 8.83 413.53 10.21 411.67 11.16 409.8 12.11 407.82 12.61 405.84 13.11 403.92 13.11L403.92 13.11Q402.89 13.11 401.82 13.04 400.74 12.96 399.72 12.76 398.69 12.55 397.76 12.17 396.84 11.79 396.1 11.21L396.1 11.21 396.1 11.18Q396.1 11.06 396.29 10.33 396.47 9.59 396.73 8.61 396.98 7.62 397.26 6.57 397.54 5.52 397.74 4.76L397.74 4.76Q397.84 4.42 397.93 4.3 398.03 4.17 398.15 4.17L398.15 4.17Q398.3 4.17 398.32 4.2L398.32 4.2Q399.03 4.66 399.65 4.97 400.28 5.27 400.97 5.46 401.67 5.64 402.5 5.71 403.33 5.79 404.43 5.79L404.43 5.79Q406.14 5.79 407.46 5.13 408.77 4.47 409.73 3.42 410.68 2.37 411.25 1.11 411.83-0.15 412.04-1.37L412.04-1.37Q410.29-0.2 408.48 0.54 406.67 1.27 404.84 1.27L404.84 1.27Q402.33 1.27 400.5 0.26 398.67-0.76 397.47-2.47 396.27-4.17 395.7-6.38 395.13-8.59 395.13-11.01L395.13-11.01Q395.13-12.92 395.48-14.86 395.83-16.8 396.53-18.6 397.23-20.41 398.25-21.98 399.28-23.56 400.62-24.73 401.96-25.9 403.6-26.57 405.23-27.25 407.16-27.25L407.16-27.25Q409.26-27.25 411.06-26.32 412.85-25.39 414.32-24.02L414.32-24.02Q414.36-24.46 414.39-24.72 414.41-24.98 414.51-25.12 414.61-25.27 414.84-25.34 415.07-25.42 415.51-25.51L415.51-25.51Q415.78-25.56 416.49-25.72 417.2-25.88 418.17-26.1 419.15-26.32 420.32-26.56 421.49-26.81 422.69-27.08L422.69-27.08Q422.98-27.15 423.23-27.15L423.23-27.15Q423.98-27.15 423.98-26.17L423.98-26.17Q423.98-26.05 423.98-25.94 423.98-25.83 423.96-25.71L423.96-25.71ZM453.38-0.78L447.44 0.88Q447.17 0.95 446.73 1.11 446.3 1.27 445.88 1.27L445.88 1.27Q445.54 1.27 445.28 1.1 445.03 0.93 445.03 0.51L445.03 0.51 445.03 0.37Q445.17-0.95 445.27-1.87 445.37-2.78 445.45-3.53 445.54-4.27 445.6-5.02 445.66-5.76 445.76-6.75 445.86-7.74 445.99-9.09 446.12-10.45 446.32-12.48L446.32-12.48Q446.44-13.72 446.54-15.01 446.64-16.31 446.64-17.41L446.64-17.41Q446.64-18.14 446.53-18.76 446.42-19.38 446.14-19.84 445.86-20.29 445.37-20.53 444.88-20.78 444.12-20.78L444.12-20.78Q443.56-20.78 442.57-20.53 441.58-20.29 440.61-19.73 439.63-19.17 438.87-18.25 438.12-17.33 438.02-15.99L438.02-15.99Q437.87-14.18 437.75-12.9 437.63-11.62 437.53-10.73 437.43-9.84 437.37-9.28 437.31-8.72 437.29-8.33L437.29-8.33Q437.26-8.23 437.21-7.79 437.16-7.35 437.1-6.74 437.04-6.13 436.98-5.44 436.92-4.76 436.86-4.15 436.8-3.54 436.76-3.1 436.73-2.66 436.73-2.56L436.73-2.56Q436.73-2.37 436.74-2.23 436.75-2.1 436.75-1.98L436.75-1.98Q436.75-1.78 436.57-1.65 436.38-1.51 435.75-1.34L435.75-1.34 429.28 0.88Q429.01 0.98 428.57 1.12 428.13 1.27 427.72 1.27L427.72 1.27Q427.37 1.27 427.12 1.1 426.86 0.93 426.86 0.51L426.86 0.51 429.08-24.44Q429.16-25.24 429.27-25.55 429.38-25.85 429.82-25.95L429.82-25.95Q432.04-26.39 434.38-26.84 436.73-27.29 438.95-28L438.95-28Q439.14-28 439.18-27.94 439.22-27.88 439.22-27.76L439.22-27.76Q439.22-27.71 439.2-27.61 439.19-27.51 439.13-27.17 439.07-26.83 438.96-26.14 438.85-25.44 438.65-24.19L438.65-24.19Q440.34-25.17 441.82-25.77 443.29-26.37 444.6-26.7 445.9-27.03 447.05-27.14 448.2-27.25 449.2-27.25L449.2-27.25Q452.64-27.25 454.21-25.16 455.77-23.07 455.77-18.9L455.77-18.9Q455.77-18.31 455.74-17.69 455.72-17.07 455.65-16.41L455.65-16.41 454.52-5.91Q454.4-4.88 454.38-4.02 454.35-3.15 454.35-2L454.35-2Q454.35-1.81 454.36-1.67 454.38-1.54 454.38-1.44L454.38-1.44Q454.38-1.22 454.19-1.1 454.01-0.98 453.38-0.78L453.38-0.78ZM474-27.25L474-27.25Q476.32-27.25 478.21-26.38 480.11-25.51 481.46-24.13 482.82-22.75 483.55-21.04 484.28-19.34 484.28-17.63L484.28-17.63Q484.28-16.11 483.35-14.59 482.43-13.06 480.75-11.84 479.08-10.62 476.74-9.86 474.39-9.11 471.59-9.11L471.59-9.11Q470.12-9.11 468.51-9.4L468.51-9.4Q468.61-8.35 469.12-7.59 469.63-6.84 470.41-6.35 471.2-5.86 472.18-5.63 473.17-5.4 474.22-5.4L474.22-5.4Q475.39-5.4 476.48-5.6 477.57-5.81 478.57-6.15 479.57-6.49 480.5-6.91 481.42-7.32 482.25-7.74L482.25-7.74Q482.47-7.79 482.63-7.82 482.79-7.86 482.94-7.86L482.94-7.86Q482.94-7.86 482.93-7.47 482.91-7.08 482.91-6.37 482.91-5.66 482.9-4.66 482.89-3.66 482.87-2.44L482.87-2.44Q482.94-2.32 482.96-2.2 482.99-2.08 482.99-2L482.99-2Q482.99-1.71 482.45-1.37 481.91-1.03 481.05-0.66 480.18-0.29 479.07 0.05 477.96 0.39 476.81 0.67 475.66 0.95 474.59 1.11 473.51 1.27 472.71 1.27L472.71 1.27Q470.07 1.27 467.59 0.35 465.12-0.56 463.2-2.27 461.28-3.98 460.14-6.42 458.99-8.86 458.99-11.91L458.99-11.91Q458.99-15.11 460.09-17.91 461.19-20.7 463.18-22.78 465.16-24.85 467.92-26.05 470.68-27.25 474-27.25ZM473.71-20.75L473.71-20.75Q472.71-20.75 471.87-20.32 471.02-19.9 470.33-19.1 469.63-18.31 469.12-17.2 468.61-16.09 468.29-14.75L468.29-14.75Q470.8-15.19 472.46-15.67 474.12-16.16 475.13-16.66 476.13-17.16 476.54-17.66 476.96-18.16 476.96-18.63L476.96-18.63Q476.96-19.07 476.63-19.46 476.3-19.85 475.81-20.14 475.32-20.43 474.75-20.59 474.17-20.75 473.71-20.75ZM508.81-27.44L507.3-19.87Q506.79-19.92 506.15-19.98 505.52-20.04 504.81-20.04L504.81-20.04Q503.74-20.04 502.63-19.86 501.52-19.68 500.56-19.14 499.61-18.6 498.93-17.66 498.24-16.72 498.05-15.23L498.05-15.23Q497.88-13.43 497.77-12.27 497.66-11.11 497.61-10.36 497.56-9.62 497.52-9.17 497.49-8.72 497.46-8.33L497.46-8.33Q497.46-8.23 497.43-7.79 497.39-7.35 497.32-6.76 497.24-6.18 497.18-5.49 497.12-4.81 497.05-4.22 496.97-3.64 496.94-3.2 496.9-2.76 496.9-2.66L496.9-2.66Q496.9-2.47 496.91-2.33 496.93-2.2 496.93-2.08L496.93-2.08Q496.93-1.88 496.74-1.75 496.56-1.61 495.92-1.44L495.92-1.44 489.45 0.88Q489.19 0.98 488.75 1.12 488.31 1.27 487.89 1.27L487.89 1.27Q487.55 1.27 487.29 1.1 487.04 0.93 487.04 0.51L487.04 0.51 489.14-23.68Q489.21-24.49 489.32-24.79 489.43-25.1 489.87-25.2L489.87-25.2Q492.09-25.63 494.46-26.09 496.83-26.54 499.05-27.25L499.05-27.25Q499.24-27.25 499.28-27.19 499.32-27.12 499.32-27L499.32-27Q499.32-26.95 499.31-26.86 499.29-26.76 499.23-26.42 499.17-26.07 499.06-25.38 498.95-24.68 498.76-23.44L498.76-23.44Q499.88-24.32 501.23-25.05 502.59-25.78 503.96-26.31 505.32-26.83 506.59-27.14 507.86-27.44 508.81-27.44L508.81-27.44ZM530.9-16.65L530.9-16.65Q530.9-14.89 531.28-13.12 531.66-11.35 532.54-9.94 533.42-8.52 534.86-7.64 536.3-6.76 538.42-6.76L538.42-6.76Q540.06-6.86 541.29-7.43 542.53-8.01 543.42-8.92 544.31-9.84 544.89-11.02 545.48-12.21 545.82-13.51 546.16-14.82 546.3-16.19 546.43-17.55 546.43-18.82L546.43-18.82Q546.43-20.56 545.97-22.18 545.5-23.8 544.58-25.05 543.65-26.29 542.27-27.05 540.89-27.81 539.06-27.81L539.06-27.81Q537.62-27.81 536.46-27.27 535.3-26.73 534.4-25.84 533.49-24.95 532.85-23.79 532.2-22.63 531.77-21.4 531.34-20.17 531.14-18.93 530.93-17.7 530.9-16.65ZM535.67 1.27L535.67 1.27Q532 1.27 529.12-0.1 526.24-1.46 524.25-3.8 522.26-6.13 521.2-9.19 520.14-12.26 520.14-15.67L520.14-15.67Q520.14-19.51 521.22-22.74 522.31-25.98 524.26-28.48 526.22-30.98 528.91-32.7 531.61-34.42 534.84-35.25L534.84-35.25Q535.13-35.25 535.29-35.72 535.45-36.18 535.57-36.74 535.69-37.3 535.86-37.77 536.03-38.23 536.35-38.23L536.35-38.23Q541.09-37.74 544.87-36.56 548.65-35.38 551.29-33.18 553.93-30.98 555.33-27.62 556.73-24.27 556.73-19.43L556.73-19.43Q556.73-16.33 555.98-13.6 555.22-10.86 553.85-8.56 552.49-6.25 550.57-4.43 548.65-2.61 546.31-1.34 543.97-0.07 541.27 0.6 538.57 1.27 535.67 1.27ZM562.32 0.37L562.32 0.37Q562.35 0.1 562.43-0.79 562.52-1.68 562.64-3.05 562.76-4.42 562.92-6.19 563.08-7.96 563.28-10 563.47-12.04 563.68-14.26 563.89-16.48 564.11-18.75L564.11-18.75 560.86-18.75Q559.54-18.75 558.95-18.86 558.37-18.97 558.37-19.31L558.37-19.31Q558.37-19.41 558.61-19.84 558.86-20.26 559.23-20.86 559.61-21.46 560.05-22.14 560.49-22.83 560.89-23.43 561.3-24.02 561.59-24.46 561.88-24.9 561.96-25L561.96-25 564.94-25 565.42-28.88Q565.77-31.96 566.66-34.06 567.55-36.16 568.88-37.45 570.21-38.75 571.92-39.31 573.63-39.87 575.58-39.87L575.58-39.87Q577.53-39.87 579.64-39.39 581.76-38.92 583.9-38.09L583.9-38.09Q584.37-37.89 584.6-37.76 584.83-37.62 584.83-37.4L584.83-37.4Q584.83-37.21 584.66-36.89L584.66-36.89Q583.88-35.38 583.5-34.45 583.12-33.52 582.9-32.98 582.68-32.45 582.54-32.26 582.39-32.08 582.1-32.08L582.1-32.08Q581.95-32.08 581.79-32.15 581.63-32.23 581.41-32.32L581.41-32.32Q580.56-32.64 579.69-32.9 578.83-33.15 578.05-33.15L578.05-33.15Q576.95-33.15 576.15-32.47 575.36-31.79 574.9-29.88L574.9-29.88Q574.63-28.78 574.46-27.51 574.29-26.25 574.16-25L574.16-25 580.54-25Q580.73-25 580.91-24.87 581.1-24.73 581.1-24.41L581.1-24.41Q581.1-24.29 580.8-23.54 580.51-22.78 579.97-21.56L579.97-21.56 579.1-19.58Q578.92-19.21 578.74-19.04 578.56-18.87 578-18.82L578-18.82 573.77-18.82Q573.5-16.28 573.26-13.79 573.02-11.3 572.8-9.12 572.58-6.93 572.41-5.24 572.24-3.54 572.14-2.61L572.14-2.61Q572.11-2.54 572.11-2.34L572.11-2.34Q572.11-2.25 572.13-2.17 572.14-2.1 572.14-2.05L572.14-2.05Q572.14-1.83 571.98-1.7 571.82-1.56 571.16-1.39L571.16-1.39 564.74 0.88Q564.47 0.98 564.03 1.12 563.59 1.27 563.18 1.27L563.18 1.27Q562.76 1.27 562.54 1.07 562.32 0.88 562.32 0.37ZM592.52-32.52L592.52-32.52Q592.66-32.62 593.02-32.78 593.37-32.93 593.85-33.13 594.32-33.33 594.87-33.56 595.42-33.79 595.98-34.01L595.98-34.01 598.82-35.13Q599.13-35.28 599.4-35.28L599.4-35.28Q599.6-35.28 599.83-35.17 600.06-35.06 600.36-34.77L600.36-34.77 605.99-23.83 606.14-24.19 608.56-28.66Q609.02-29.49 609.47-30.3 609.93-31.1 610.28-31.74 610.63-32.37 610.88-32.76 611.12-33.15 611.17-33.15L611.17-33.15 619.54-35.25Q619.84-35.33 620.03-35.33L620.03-35.33Q620.59-35.33 620.59-34.81L620.59-34.81Q620.57-34.69 620.55-34.48 620.52-34.28 620.4-34.03L620.4-34.03 613.22-20.73Q612.68-19.73 612.13-18.73 611.59-17.72 611.07-16.83 610.56-15.94 610.16-15.21 609.75-14.48 609.51-14.01L609.51-14.01 609.34-13.21 607.97-4.05Q607.9-3.64 607.85-3.37 607.8-3.1 607.72-2.93 607.63-2.76 607.5-2.64 607.36-2.51 607.12-2.39L607.12-2.39 600.18 1.25Q599.79 1.44 599.37 1.56 598.94 1.68 598.55 1.68L598.55 1.68Q598.13 1.68 597.84 1.5 597.55 1.32 597.55 0.9L597.55 0.9 597.55 0.81Q597.65-0.59 597.9-2.43 598.16-4.27 598.45-6.03L598.45-6.03 599.82-15.09Q599.43-15.92 598.79-17.29 598.16-18.65 597.43-20.24 596.69-21.83 595.9-23.51 595.11-25.2 594.41-26.7 593.71-28.2 593.17-29.35 592.62-30.49 592.35-31.03L592.35-31.03Q592.23-31.4 592.23-31.79L592.23-31.79Q592.23-32.01 592.29-32.21 592.35-32.42 592.52-32.52ZM629.7 1.27L629.7 1.27Q626.26 1.27 623.66 0.15 621.06-0.98 619.3-2.84 617.54-4.71 616.66-7.14 615.78-9.57 615.78-12.18L615.78-12.18Q615.78-14.79 616.64-17.15 617.49-19.51 619.03-21.37 620.57-23.24 622.72-24.5 624.86-25.76 627.45-26.2L627.45-26.2Q627.84-26.22 627.84-26.37L627.84-26.37Q627.84-26.64 627.78-26.87 627.72-27.1 627.72-27.27L627.72-27.27Q627.72-27.54 627.82-27.64 627.92-27.73 628.04-27.73L628.04-27.73Q632.7-27.73 635.97-26.67 639.24-25.61 641.29-23.78 643.35-21.95 644.27-19.46 645.2-16.97 645.2-14.11L645.2-14.11Q645.2-10.47 643.98-7.62 642.76-4.76 640.65-2.78 638.54-0.81 635.72 0.23 632.9 1.27 629.7 1.27ZM625.18-12.45L625.18-12.45Q625.18-11.13 625.46-9.84 625.74-8.54 626.39-7.5 627.04-6.45 628.09-5.8 629.14-5.15 630.7-5.15L630.7-5.15Q631.82-5.2 632.66-5.65 633.51-6.1 634.12-6.82 634.73-7.54 635.13-8.45 635.53-9.35 635.77-10.31 636-11.28 636.09-12.21 636.19-13.13 636.19-13.89L636.19-13.89Q636.19-15.16 635.81-16.38 635.44-17.6 634.7-18.53 633.97-19.46 632.88-20.03 631.8-20.61 630.38-20.61L630.38-20.61Q628.92-20.61 627.92-19.74 626.92-18.87 626.32-17.6 625.72-16.33 625.45-14.93 625.18-13.53 625.18-12.45ZM676.42-27L674.13-3.03Q674.06-2.22 673.93-1.92 673.81-1.61 673.4-1.51L673.4-1.51Q671.32-0.93 669.06-0.33 666.81 0.27 664.68 1.25L664.68 1.25Q664.61 1.27 664.46 1.27L664.46 1.27Q664.27 1.27 664.23 1.17 664.19 1.07 664.19 0.95L664.19 0.95Q664.19 0.9 664.21 0.78 664.22 0.66 664.27 0.33 664.31 0 664.4-0.59 664.49-1.17 664.63-2.15L664.63-2.15Q661.9-0.37 659.79 0.45 657.67 1.27 656.04 1.27L656.04 1.27Q651.96 1.27 650.09-0.7 648.23-2.66 648.23-6.57L648.23-6.57Q648.23-7.28 648.25-8.02 648.27-8.76 648.4-9.55L648.4-9.55Q648.67-12.43 648.86-14.49 649.06-16.55 649.18-17.99 649.3-19.43 649.39-20.35 649.47-21.26 649.53-21.88 649.59-22.49 649.63-22.89 649.67-23.29 649.72-23.68L649.72-23.68Q649.81-24.46 649.9-24.78 649.98-25.1 650.45-25.2L650.45-25.2Q651.6-25.42 652.63-25.6 653.67-25.78 654.68-25.99 655.7-26.2 656.75-26.44 657.8-26.68 658.97-27.03L658.97-27.03Q659.02-27.03 659.07-27.04 659.11-27.05 659.16-27.05L659.16-27.05Q659.46-27.05 659.46-26.86L659.46-26.86 659.46-26.81Q659.36-25.98 659.29-25.24 659.21-24.51 659.14-23.74 659.07-22.97 658.98-22.09 658.89-21.22 658.77-20.06 658.65-18.9 658.48-17.38 658.31-15.87 658.06-13.87L658.06-13.87Q657.92-12.4 657.77-10.95 657.63-9.5 657.63-8.25L657.63-8.25Q657.63-7.57 657.72-6.99 657.82-6.42 658.08-6.02 658.33-5.62 658.75-5.4 659.16-5.18 659.82-5.18L659.82-5.18Q660.34-5.18 661.21-5.41 662.09-5.64 662.97-6.21 663.85-6.79 664.52-7.73 665.19-8.67 665.29-10.11L665.29-10.11Q665.46-12.52 665.6-14.15 665.73-15.77 665.83-16.88 665.93-17.99 666-18.75 666.07-19.51 666.13-20.2 666.19-20.9 666.24-21.69 666.29-22.49 666.34-23.68L666.34-23.68Q666.41-24.49 666.52-24.79 666.63-25.1 667.07-25.2L667.07-25.2Q669.3-25.63 671.61-26.09 673.93-26.54 676.16-27.25L676.16-27.25Q676.35-27.25 676.39-27.19 676.42-27.12 676.42-27L676.42-27ZM701.06-27.44L699.54-19.87Q699.03-19.92 698.39-19.98 697.76-20.04 697.05-20.04L697.05-20.04Q695.98-20.04 694.87-19.86 693.76-19.68 692.8-19.14 691.85-18.6 691.17-17.66 690.48-16.72 690.29-15.23L690.29-15.23Q690.12-13.43 690.01-12.27 689.9-11.11 689.85-10.36 689.8-9.62 689.76-9.17 689.73-8.72 689.7-8.33L689.7-8.33Q689.7-8.23 689.67-7.79 689.63-7.35 689.56-6.76 689.48-6.18 689.42-5.49 689.36-4.81 689.29-4.22 689.21-3.64 689.18-3.2 689.14-2.76 689.14-2.66L689.14-2.66Q689.14-2.47 689.15-2.33 689.17-2.2 689.17-2.08L689.17-2.08Q689.17-1.88 688.98-1.75 688.8-1.61 688.16-1.44L688.16-1.44 681.7 0.88Q681.43 0.98 680.99 1.12 680.55 1.27 680.13 1.27L680.13 1.27Q679.79 1.27 679.53 1.1 679.28 0.93 679.28 0.51L679.28 0.51 681.38-23.68Q681.45-24.49 681.56-24.79 681.67-25.1 682.11-25.2L682.11-25.2Q684.33-25.63 686.7-26.09 689.07-26.54 691.29-27.25L691.29-27.25Q691.49-27.25 691.52-27.19 691.56-27.12 691.56-27L691.56-27Q691.56-26.95 691.55-26.86 691.53-26.76 691.47-26.42 691.41-26.07 691.3-25.38 691.19-24.68 691-23.44L691-23.44Q692.12-24.32 693.47-25.05 694.83-25.78 696.2-26.31 697.56-26.83 698.83-27.14 700.1-27.44 701.06-27.44L701.06-27.44ZM737.16-20.07L737.16-20.07Q737.06-19.7 736.79-19.02 736.52-18.33 736.18-17.47 735.84-16.6 735.43-15.64 735.01-14.67 734.62-13.75L734.62-13.75Q734.45-13.33 734.22-13.13 733.99-12.94 733.28-12.92L733.28-12.92 726.15-12.79 725.27-1.95Q725.24-1.73 725.15-1.53 725.05-1.32 724.85-1.2L724.85-1.2Q724.78-1.15 724.28-0.92 723.78-0.68 723.02-0.37 722.27-0.05 721.36 0.32 720.46 0.68 719.58 0.99 718.7 1.29 717.97 1.5 717.24 1.71 716.82 1.71L716.82 1.71Q716.33 1.71 715.93 1.53 715.53 1.34 715.53 0.78L715.53 0.78Q715.5-0.44 715.59-1.92 715.67-3.39 715.8-4.92 715.92-6.45 716.07-7.92 716.21-9.4 716.31-10.62L716.31-10.62 716.48-12.67Q714.43-12.67 713.55-12.78 712.67-12.89 712.67-13.35L712.67-13.35Q712.67-13.67 713.04-14.18L713.04-14.18Q713.55-14.89 714.2-15.89 714.84-16.89 715.44-17.85 716.04-18.8 716.49-19.53 716.94-20.26 717.07-20.43L717.07-20.43 717.53-27.15Q717.07-27.15 716.72-27.14 716.38-27.12 716.1-27.11 715.82-27.1 715.58-27.09 715.33-27.08 715.06-27.08L715.06-27.08Q713.89-27.08 713.39-27.21 712.89-27.34 712.89-27.71L712.89-27.71Q712.89-27.88 713.18-28.42 713.48-28.96 713.9-29.65 714.33-30.35 714.83-31.12 715.33-31.88 715.72-32.54L715.72-32.54 717.19-35.03 728.3-35.42Q730.45-35.5 732.57-35.58 734.69-35.67 736.49-35.74 738.28-35.82 739.58-35.88 740.87-35.94 741.38-35.96L741.38-35.96Q741.41-35.96 741.52-35.95 741.63-35.94 741.75-35.88 741.87-35.82 741.98-35.67 742.09-35.52 742.09-35.25L742.09-35.25Q742.09-35.11 741.75-34.28 741.41-33.45 740.77-31.81L740.77-31.81 739.7-28.98Q739.53-28.56 739.31-28.34 739.09-28.13 738.38-28.1L738.38-28.1Q737.55-28.08 736.7-28.03 735.84-27.98 734.94-27.93L734.94-27.93 727.52-27.56Q727.37-26.61 727.31-26.15 727.25-25.68 727.23-25.38 727.22-25.07 727.22-24.77 727.22-24.46 727.2-23.8L727.2-23.8Q727.17-23.34 727.14-23.02 727.1-22.71 727.06-22.4 727.03-22.09 726.99-21.75 726.95-21.41 726.93-20.9L726.93-20.9Q728.54-20.95 730.09-21 731.64-21.04 732.95-21.09 734.25-21.14 735.21-21.18 736.16-21.22 736.55-21.22L736.55-21.22Q736.74-21.22 736.99-21.07 737.23-20.92 737.23-20.51L737.23-20.51Q737.23-20.31 737.16-20.07ZM752.88 1.27L752.88 1.27Q749.44 1.27 746.84 0.15 744.24-0.98 742.48-2.84 740.72-4.71 739.84-7.14 738.96-9.57 738.96-12.18L738.96-12.18Q738.96-14.79 739.82-17.15 740.67-19.51 742.21-21.37 743.75-23.24 745.9-24.5 748.05-25.76 750.63-26.2L750.63-26.2Q751.02-26.22 751.02-26.37L751.02-26.37Q751.02-26.64 750.96-26.87 750.9-27.1 750.9-27.27L750.9-27.27Q750.9-27.54 751-27.64 751.1-27.73 751.22-27.73L751.22-27.73Q755.88-27.73 759.15-26.67 762.42-25.61 764.48-23.78 766.53-21.95 767.45-19.46 768.38-16.97 768.38-14.11L768.38-14.11Q768.38-10.47 767.16-7.62 765.94-4.76 763.83-2.78 761.72-0.81 758.9 0.23 756.08 1.27 752.88 1.27ZM748.36-12.45L748.36-12.45Q748.36-11.13 748.64-9.84 748.92-8.54 749.57-7.5 750.22-6.45 751.27-5.8 752.32-5.15 753.88-5.15L753.88-5.15Q755-5.2 755.85-5.65 756.69-6.1 757.3-6.82 757.91-7.54 758.31-8.45 758.71-9.35 758.95-10.31 759.18-11.28 759.28-12.21 759.37-13.13 759.37-13.89L759.37-13.89Q759.37-15.16 758.99-16.38 758.62-17.6 757.88-18.53 757.15-19.46 756.07-20.03 754.98-20.61 753.56-20.61L753.56-20.61Q752.1-20.61 751.1-19.74 750.1-18.87 749.5-17.6 748.9-16.33 748.63-14.93 748.36-13.53 748.36-12.45ZM784.93 1.27L784.93 1.27Q781.49 1.27 778.89 0.15 776.29-0.98 774.53-2.84 772.77-4.71 771.9-7.14 771.02-9.57 771.02-12.18L771.02-12.18Q771.02-14.79 771.87-17.15 772.73-19.51 774.26-21.37 775.8-23.24 777.95-24.5 780.1-25.76 782.69-26.2L782.69-26.2Q783.08-26.22 783.08-26.37L783.08-26.37Q783.08-26.64 783.02-26.87 782.95-27.1 782.95-27.27L782.95-27.27Q782.95-27.54 783.05-27.64 783.15-27.73 783.27-27.73L783.27-27.73Q787.94-27.73 791.21-26.67 794.48-25.61 796.53-23.78 798.58-21.95 799.51-19.46 800.44-16.97 800.44-14.11L800.44-14.11Q800.44-10.47 799.21-7.62 797.99-4.76 795.88-2.78 793.77-0.81 790.95 0.23 788.13 1.27 784.93 1.27ZM780.42-12.45L780.42-12.45Q780.42-11.13 780.7-9.84 780.98-8.54 781.62-7.5 782.27-6.45 783.32-5.8 784.37-5.15 785.93-5.15L785.93-5.15Q787.06-5.2 787.9-5.65 788.74-6.1 789.35-6.82 789.96-7.54 790.36-8.45 790.77-9.35 791-10.31 791.23-11.28 791.33-12.21 791.43-13.13 791.43-13.89L791.43-13.89Q791.43-15.16 791.05-16.38 790.67-17.6 789.94-18.53 789.2-19.46 788.12-20.03 787.03-20.61 785.62-20.61L785.62-20.61Q784.15-20.61 783.15-19.74 782.15-18.87 781.55-17.6 780.95-16.33 780.68-14.93 780.42-13.53 780.42-12.45ZM821.53-8.33L822.04-13.89Q822.11-14.67 822.2-15.53 822.28-16.38 822.41-17.31L822.41-17.31Q821.84-18.77 820.82-19.69 819.79-20.61 818.25-20.61L818.25-20.61Q816.74-20.61 815.69-19.74 814.64-18.87 814.01-17.6 813.37-16.33 813.09-14.93 812.81-13.53 812.81-12.45L812.81-12.45Q812.81-11.13 812.97-9.84 813.13-8.54 813.48-7.5 813.84-6.45 814.42-5.8 815.01-5.15 815.89-5.15L815.89-5.15Q818.04-5.22 819.38-6.13 820.72-7.03 821.53-8.33L821.53-8.33ZM833.71-36.84L830.56-2.47Q830.56-2.42 830.55-2.36 830.54-2.29 830.54-2.25L830.54-2.25Q830.54-2.12 830.55-2.05 830.56-1.98 830.56-1.9L830.56-1.9Q830.56-1.68 830.4-1.55 830.24-1.42 829.58-1.25L829.58-1.25 823.04 0.88Q822.77 0.98 822.33 1.12 821.89 1.27 821.48 1.27L821.48 1.27Q821.14 1.27 820.88 1.1 820.62 0.93 820.62 0.46L820.62 0.46Q820.62 0.02 820.64-0.24 820.65-0.51 820.66-0.74 820.67-0.98 820.71-1.25 820.75-1.51 820.79-1.95L820.79-1.95Q818.96-0.49 817.02 0.39 815.08 1.27 812.93 1.27L812.93 1.27Q810.59 1.27 808.77 0.16 806.95-0.95 805.71-2.82 804.46-4.69 803.81-7.09 803.17-9.5 803.17-12.11L803.17-12.11Q803.17-15.5 804.28-18.3 805.39-21.09 807.29-23.08 809.2-25.07 811.74-26.16 814.28-27.25 817.13-27.25L817.13-27.25Q818.67-27.25 820.07-26.44 821.48-25.63 822.72-24.37L822.72-24.37Q822.8-25.56 822.89-26.97 822.99-28.37 823.09-29.82 823.19-31.27 823.28-32.69 823.38-34.11 823.46-35.28L823.46-35.28Q823.46-35.5 823.61-35.63 823.77-35.77 824.43-35.94L824.43-35.94 831.29-37.57Q831.56-37.62 832-37.79 832.44-37.96 832.85-37.96L832.85-37.96Q833.17-37.96 833.45-37.82 833.73-37.67 833.73-37.26L833.73-37.26Q833.73-37.21 833.72-37.05 833.71-36.89 833.71-36.84L833.71-36.84ZM856.85-28.56L856.85-28.56Q856.07-24.76 855.32-20.96 854.58-17.16 853.94-13.28L853.94-13.28Q853.89-12.48 853.78-12.16 853.67-11.84 853.24-11.77L853.24-11.77Q852.28-11.6 851.36-11.4 850.43-11.21 849.4-10.94L849.4-10.94Q849.21-10.94 849.17-11 849.13-11.06 849.13-11.18L849.13-11.18 848.89-35.3Q848.94-36.08 849.06-36.4 849.18-36.72 849.6-36.82L849.6-36.82Q851.67-37.28 853.8-37.88 855.92-38.48 858.29-39.09L858.29-39.09Q858.36-39.11 858.51-39.11L858.51-39.11Q858.78-39.11 858.78-38.87L858.78-38.87Q858.78-38.84 858.68-38.27 858.58-37.7 858.42-36.79 858.26-35.89 858.07-34.75 857.87-33.62 857.65-32.48 857.43-31.35 857.23-30.31 857.02-29.27 856.85-28.56ZM855.99-8.35L855.99-8.35Q855.92-7.3 855.88-6.74 855.85-6.18 855.82-5.9 855.8-5.62 855.8-5.54 855.8-5.47 855.79-5.43 855.77-5.4 855.76-5.29 855.75-5.18 855.73-4.82 855.7-4.47 855.65-3.78 855.6-3.1 855.51-1.9L855.51-1.9Q855.46-1.1 855.35-0.79 855.24-0.49 854.8-0.39L854.8-0.39Q852.72 0.02 850.45 0.48 848.18 0.93 846.06 1.64L846.06 1.64Q845.98 1.66 845.84 1.66L845.84 1.66 845.62 1.46Q845.57 1.42 845.57 1.42L845.57 1.42 846.11-5.27Q846.16-6.05 846.27-6.37 846.37-6.69 846.81-6.79L846.81-6.79Q848.89-7.15 851.01-7.62 853.14-8.08 855.51-8.57L855.51-8.57Q855.58-8.59 855.73-8.59L855.73-8.59Q855.99-8.59 855.99-8.35Z" opacity="1" transform="matrix(1,0,0,1,0,0)" fill="#c1c1c1" class="undefined-text-1" data-fill-palette-color="secondary" id="text-1"></path></svg></g></svg></g></svg></g></svg></g><g transform="matrix(1,0,0,1,51.504,0)"><svg viewBox="0 0 88.992 49.63716280193173" height="49.63716280193173" width="88.992"><g><svg xmlns="http://www.w3.org/2000/svg" xmlns:xlink="http://www.w3.org/1999/xlink" version="1.1" x="0" y="0" viewBox="4.286365509033203 24.48699951171875 92.4881591796875 51.58721923828125" enable-background="new 0 0 100 100" xml:space="preserve" height="49.63716280193173" width="88.992" class="icon-icon-0" data-fill-palette-color="accent" id="icon-0"><path d="M96.562 62.695l-0.311-2.181c-0.3-1.686-0.748-3.259-1.427-4.512-2.527-4.664-21.781-29.054-27.316-30.636-0.926-0.265-3.389-0.879-6.28-0.879-3.969 0-7.205 1.159-9.361 3.353-1.945 1.979-3 4.738-3.141 8.214-2.732 1.249-9.46 4.648-11.314 8.562-0.935 1.974-4.817 3.736-7.937 5.154-2.51 1.14-4.678 2.125-6.004 3.35-0.712 0.657-1.678 1.634-2.792 2.762-3.172 3.21-7.966 8.062-10.814 9.262-3.224 1.357-5.355 3.561-5.563 5.751-0.111 1.173 0.374 2.242 1.299 2.858 1.666 1.11 7.711 1.94 12.003 1.94 0.905 0 1.779-0.034 2.592-0.106 2.44-0.223 11.275-0.403 19.694-0.403 10.072 0 14.617 0.246 15.45 0.457 1.746 0.442 3.311 0.419 5.603 0.246 1.5-0.11 3.247-0.239 5.825-0.193 2.647 0.052 5.091 0.155 7.103 0.242 1.79 0.075 3.245 0.138 4.214 0.138 0.651 0 1.066-0.026 1.351-0.079 0.105-0.013 0.645-0.056 3.195-0.056 4.563 0 11.933 0.135 11.937 0.135 0.965 0.014 1.668-0.648 1.782-1.544C96.394 74.171 97.126 68.229 96.562 62.695zM46.117 46.308c3.599-0.917 6.888-0.204 7.346 1.596 0.458 1.797-2.085 4.002-5.683 4.918-3.599 0.917-6.887 0.204-7.346-1.596C39.977 49.429 42.521 47.226 46.117 46.308zM28.83 55.225c3.478-0.294 6.408 0.98 6.544 2.85 0.139 1.868-2.568 3.627-6.044 3.921-3.478 0.295-6.408-0.98-6.544-2.851C22.649 57.276 25.354 55.521 28.83 55.225zM68.728 71.552c-0.099 0.214-0.146 0.436-0.153 0.656-0.569-0.016-1.146-0.03-1.737-0.043-0.409-0.007-0.797-0.01-1.169-0.01-2.137 0-3.719 0.118-4.989 0.213-1.832 0.139-3.095 0.2-4.474-0.147-1.843-0.468-9.89-0.565-16.315-0.565-8.652 0-17.443 0.183-20.014 0.417-0.599 0.055-1.252 0.072-1.912 0.079 6.599-2.576 14.378-5.079 16.664-4.546 1.353 0.322 2.363 0.663 3.255 0.963 2.088 0.705 3.741 1.262 6.725 0.329 0.837-0.262 1.699-0.604 2.57-0.954 3.061-1.224 5.039-1.884 6.7-0.719 3.797 2.659 6.9 2.202 9.901 1.768l0.234-0.032c2.237-0.328 4.478-0.024 4.998 0.672C69.246 69.945 69.143 70.646 68.728 71.552zM63.599 61.02c-4.466 0.331-8.229-1.068-8.409-3.131-0.181-2.062 3.292-4.004 7.756-4.336 4.464-0.335 8.23 1.068 8.41 3.13C71.536 58.743 68.063 60.688 63.599 61.02zM77.548 58.425c-0.728-2.467-1.829-4.981-3.479-6.277-4.092-3.216-9.187-7.505-11.213-9.899-0.269-0.317-5.652-6.588-10.517-7.036 0.231-2.092 0.908-3.74 2.046-4.897 1.866-1.898 4.752-2.297 6.844-2.297 2.447 0 4.527 0.52 5.309 0.742 3.187 0.91 17.306 17.467 23.131 25.74-1.961-0.796-4.229-1.003-6.721-0.068C80.421 55.379 78.722 56.739 77.548 58.425zM93.012 72.517c-2.44-0.038-7.121-0.106-10.382-0.106-2.964 0-3.498 0.054-3.79 0.106-0.136 0.021-0.346 0.031-0.608 0.035 0.013-0.229 0.026-0.475 0.036-0.7 0.409-8.403 0.806-12.198 5.92-14.114 4.326-1.626 7.479 2.22 8.7 4.07C93.412 65.382 93.255 69.749 93.012 72.517z" fill="#d51d1d" data-fill-palette-color="accent"></path></svg></g></svg></g><g></g></svg></g></svg></g></svg></g></svg></g><defs></defs></svg><rect width="320" height="360" fill="none" stroke="none" visibility="hidden"></rect></g></svg></g></svg>